<svg width="270" height="45" viewBox="0 0 270 45" fill="none" xmlns="http://www.w3.org/2000/svg">
<path d="M88.0183 41.72C88.0183 40.4855 88.9052 39.5155 88.8165 38.281C86.6881 34.842 84.6483 31.3148 82.6086 27.7876C81.1896 25.4068 80.1254 22.8496 78.7064 20.4687C77.2874 18.0879 75.9572 15.6188 74.5382 13.1498C73.474 11.2098 71.8777 9.53443 71.0795 7.41812C70.9021 6.88904 70.4587 6.35996 70.37 5.7427C70.2813 5.12544 70.0153 4.68455 69.5719 4.24365C68.419 3.18549 67.266 3.36185 66.3792 4.59637C64.1621 7.9472 61.8563 11.298 59.2844 14.3843C58.2202 15.6188 57.3333 16.9415 56.7125 18.4406C55.0275 22.1441 53.4312 25.8477 51.4801 29.4631C49.8838 32.4612 48.1988 35.4593 45.8043 38.0165C45.9816 38.9865 45.5382 39.9564 45.3608 40.8382C46.4251 40.5737 47.3119 41.0146 47.9327 41.8082C48.3761 41.8964 48.8196 41.8964 49.1743 41.9846C49.5291 41.6319 49.7951 41.72 49.9725 42.0728C53.7859 42.9546 57.7767 43.0427 61.6789 43.3955C66.6452 43.8364 71.7003 43.66 76.6667 44.0127C79.8593 44.2773 83.1406 44.4536 86.3333 44.4536C86.8654 44.4536 87.3089 44.4536 87.7523 44.1891C87.9297 43.7482 88.1957 43.3955 88.6391 43.2191C88.7278 43.1309 88.8165 43.0427 88.9052 42.9546C88.9939 42.4255 87.7523 42.69 88.0183 41.72Z" fill="#FFC7C3"/>
<path d="M179.453 39.1628C179.364 38.1928 179.63 37.2228 179.896 36.2529C179.098 36.341 178.743 35.7238 178.3 35.3711C176.171 33.3429 174.043 31.3148 172.358 28.8458C171.382 27.4349 170.141 26.2885 169.165 24.9658C167.303 22.4086 165.884 19.5869 164.022 17.0297C162.957 15.5306 161.538 14.2079 160.208 12.797C159.587 12.1798 158.966 11.5625 158.612 10.8571C157.193 7.59444 154 7.68261 152.049 10.5925C149.566 14.3843 146.728 17.8233 144.511 21.7914C143.092 24.3486 141.318 26.7294 139.544 29.1103C138.125 30.9621 136.973 32.9902 135.82 35.0183C134.933 36.6938 133.78 38.1928 132.45 39.6037C131.829 40.3973 132.538 41.1909 132.45 41.9845C133.248 42.69 134.223 42.9545 135.199 42.8663C138.037 42.5136 140.875 43.0427 143.713 42.9545C147.26 42.7782 150.896 42.8663 154.444 42.7782C157.902 42.69 161.45 43.0427 164.997 42.8663C168.19 42.7782 171.294 42.7782 174.486 42.4254C175.994 42.2491 177.59 41.8964 178.832 41.0146C179.098 40.3973 178.743 39.6919 179.453 39.1628Z" fill="#FFC7C3"/>
<path d="M45.3609 42.2491C43.7645 43.1309 41.9908 43.66 40.1284 43.7481C36.315 43.9245 32.5015 44.1009 28.6881 44.0127C23.8104 43.9245 18.9327 44.0127 14.1438 43.9245C10.2416 43.8363 6.33946 43.9245 2.43732 43.8363C1.63915 43.8363 0.663619 43.8363 0.220194 42.8663C-0.223231 41.8964 0.0428236 41.1027 0.663619 40.3091C1.10704 39.7801 1.55047 39.251 1.99389 38.6337C4.03365 35.3711 6.16209 32.1084 8.29053 28.9339C11.9266 23.555 15.5627 18.0878 19.1101 12.6207C20.7064 10.1517 23.8991 9.79893 24.9633 12.0034C25.8502 13.767 27.1804 15.0897 28.5994 16.4124C30.4618 18.2642 31.7921 20.5569 33.1223 22.6732C34.4526 24.8777 35.8716 26.994 37.5566 29.0221C40.1285 32.1966 42.6116 35.3711 45.8043 37.9283C45.9817 38.8983 45.5382 39.8682 45.3609 40.75C46.4251 40.4855 47.3119 40.9264 47.9327 41.72C47.0459 41.72 46.159 41.9845 45.3609 42.2491Z" fill="#FEEA80"/>
<path d="M49.2629 42.0728C49.6177 41.7201 49.8838 41.8082 50.0611 42.161C49.7064 42.5137 49.4403 42.5137 49.2629 42.0728Z" fill="#FEEA80"/>
<path d="M132.627 41.9846C131.917 42.6019 131.208 43.0428 130.232 43.1309C125.798 43.5718 121.275 44.1009 116.841 44.2773C113.737 44.4536 110.633 44.8063 107.618 44.5418C106.908 44.63 106.199 44.63 105.489 44.4536C105.223 44.4536 104.869 44.4536 104.603 44.4536C103.804 43.5718 102.74 43.5718 101.765 43.7482C102.74 43.5718 103.716 43.5718 104.603 44.4536C104.425 44.8063 104.159 44.9827 103.804 44.9827C99.9022 45.0709 96.0888 44.8063 92.1866 44.5418C91.0337 44.4536 90.0582 43.9245 89.26 43.0428C89.1713 42.4255 87.9297 42.69 88.1958 41.7201C88.1958 40.4855 89.0826 39.5156 88.9939 38.281C89.9695 37.3111 90.1469 35.9884 90.5903 34.7539C91.5658 32.1085 92.8074 29.6394 94.049 27.1704C94.5811 26.2004 94.3151 25.0541 95.0246 24.1723C96.1775 22.8496 96.6209 21.086 97.6851 19.6751C98.6606 18.3524 98.9267 16.5888 100.08 15.5307C101.942 13.7671 102.385 11.1217 104.07 9.2699C105.135 7.9472 106.021 6.35998 106.997 4.9491C107.352 3.97912 108.061 3.53822 109.037 3.27368C109.835 2.39188 110.544 2.39188 111.254 3.45004C111.963 4.33184 112.407 5.30182 113.028 6.2718C113.294 6.62452 113.648 6.97723 113.914 7.41813C115.954 11.1217 117.994 14.9134 120.034 18.617C122.251 22.6732 124.557 26.6413 126.596 30.7858C127.661 32.9021 129.08 34.842 129.878 37.1347C130.587 39.0747 130.676 38.9865 132.804 39.6037C132.006 40.3974 132.716 41.191 132.627 41.9846Z" fill="#FFBC46"/>
<path d="M88.8166 43.3954C89.1713 44.2772 88.8166 44.6299 87.9297 44.3654C88.0184 43.8363 88.3732 43.5718 88.8166 43.3954Z" fill="#FFBC46"/>
<path d="M223.795 42.161C223.706 42.2491 223.795 42.4255 223.706 42.6019C222.908 43.66 221.755 43.3955 220.691 43.1309C219.981 43.4837 219.272 43.0428 218.563 42.9546C216.434 43.2191 214.306 42.9546 212.177 42.8664C211.556 43.0428 211.024 42.7782 210.492 42.6019C210.226 42.8664 209.871 42.8664 209.605 42.6019C208.718 42.69 207.92 42.6019 207.034 42.4255C206.59 42.6019 206.147 42.6019 205.792 42.5137C205.082 42.69 204.462 42.69 203.752 42.5137C203.309 42.5137 202.777 42.5137 202.333 42.5137C199.495 42.5137 196.657 42.69 193.819 42.0728C193.553 42.0728 193.287 42.0728 193.021 42.0728C190.272 41.9846 187.523 41.9846 184.862 41.1028C184.596 41.0146 184.33 41.0146 183.975 40.9264C183.621 41.2792 183.355 41.2792 183.177 40.8383C182.911 40.8383 182.645 40.7501 182.29 40.7501C181.936 39.5156 181.049 39.4274 180.162 39.4274C181.049 39.4274 181.936 39.6038 182.29 40.7501C181.137 40.9265 179.896 40.3974 178.832 41.191C178.92 40.5737 178.566 39.8683 179.275 39.3392C179.186 38.3692 179.452 37.3993 179.719 36.4293C180.073 35.3711 181.137 34.9302 181.67 34.0484C182.556 32.7257 183.177 31.2267 184.064 29.904C186.459 26.2886 187.878 22.2323 189.829 18.4406C190.804 16.4125 191.691 14.3843 193.11 12.6207C195.859 9.26992 198.431 5.83091 200.648 2.12736C201.269 1.0692 202.511 0.892841 203.575 1.68646C204.196 2.12736 204.373 2.74462 204.639 3.45005C205.26 5.03729 205.881 6.80089 206.856 8.12358C208.009 9.53446 208.896 11.1217 209.871 12.7089C211.29 15.0898 212.532 17.647 213.862 20.0278C215.015 22.056 215.991 24.2605 217.41 26.2886C218.917 28.4931 219.981 30.9621 221.312 33.2548C222.021 34.4893 222.997 35.5475 223.529 36.8702C223.529 37.0465 223.529 37.1347 223.529 37.3111C223.618 38.4574 222.819 39.5156 223.085 40.6619C223.085 40.9265 222.997 41.191 222.997 41.5437C223.884 41.2792 224.682 41.191 223.795 42.161ZM220.957 42.7782C221.134 42.6019 221.312 42.3373 221.489 42.161C221.312 42.4255 221.134 42.6019 220.957 42.7782Z" fill="#FFC799"/>
<path d="M268.936 40.8382C268.581 41.4554 267.96 41.8081 267.162 41.6318C266.896 41.6318 266.63 41.6318 266.364 41.6318C266.098 41.6318 265.743 41.6318 265.477 41.72C265.122 41.8963 264.679 41.9845 264.236 41.8963C263.526 42.3372 262.817 42.1609 262.107 42.1609C261.575 42.3372 260.954 42.3372 260.422 42.3372C259.358 42.6899 258.205 43.0427 257.052 42.6899C256.786 42.6899 256.431 42.6899 256.165 42.6899C256.165 42.6018 256.165 42.5136 256.165 42.5136C256.165 42.6018 256.165 42.6899 256.165 42.6899C255.367 43.3072 254.48 43.0427 253.593 43.0427C252.618 43.219 251.642 43.219 250.667 43.1308C248.982 43.8363 247.297 43.4836 245.523 43.3954C245.257 43.5717 244.991 43.5717 244.725 43.4836C243.572 43.5717 242.419 43.6599 241.266 43.3072C241 43.3954 240.645 43.4836 240.379 43.3954C239.138 44.1008 237.098 44.1008 235.413 43.4836C235.147 43.4836 234.792 43.4836 234.526 43.4836C232.22 44.0126 229.914 43.4836 227.697 43.4836C226.456 43.4836 225.214 42.6899 223.884 42.7781C223.884 42.6018 223.884 42.4254 223.973 42.3372C224.859 41.3672 224.15 41.4554 223.44 41.4554C223.44 41.1909 223.529 40.9263 223.529 40.5736C223.352 39.4273 224.061 38.3691 223.973 37.2228C223.973 37.0464 223.973 36.9583 223.973 36.7819C224.593 35.9001 225.303 35.1065 225.392 33.872C225.48 33.2547 225.746 32.6375 226.456 32.4611C226.456 32.2847 226.544 32.1966 226.633 32.1084C226.722 31.4029 226.81 30.7857 226.988 30.0802C227.431 28.6694 227.875 27.1703 229.116 26.2003C229.028 25.6713 229.294 25.2304 229.648 24.8776C229.56 24.1722 229.294 23.4668 230.269 23.114C230.269 22.585 230.535 22.2322 230.801 21.9677C230.979 21.3504 231.156 20.645 231.333 20.0277C231.511 19.4105 231.866 19.146 232.486 19.0578C232.752 18.7932 232.93 18.5287 233.196 18.176C232.93 17.5587 233.284 17.206 233.817 16.9415C233.994 16.6769 234.26 16.3242 234.437 16.0597C234.526 14.9133 234.792 13.767 235.945 13.1497C237.009 12.2679 237.275 10.857 237.985 9.71071C237.807 8.0353 239.404 7.5944 240.202 6.7126C240.291 6.44807 240.379 6.18353 240.379 5.91899C240.202 5.38991 240.557 5.12537 241 5.03719C241.266 4.59629 241.443 4.24357 241.71 3.80267C241.443 2.92088 242.153 2.74451 242.774 2.47998C242.862 2.3918 242.862 2.21544 242.951 2.12725C243.306 1.24546 244.104 0.804562 244.902 0.275482C245.612 -0.165417 246.321 -0.0772362 246.853 0.540024C247.917 1.77454 248.982 3.00905 249.425 4.68447C249.602 4.94901 249.691 5.21355 249.869 5.38991C251.199 7.24168 252.44 9.09346 253.15 11.298C253.505 11.3861 253.771 11.6507 253.948 12.0034C254.391 13.4143 255.367 14.5606 256.076 15.8833C258.56 20.2923 260.865 24.7895 263.26 29.1984C263.437 29.6393 263.615 29.9921 263.792 30.433C264.502 30.962 264.768 31.7557 264.945 32.6374C265.211 32.9902 265.566 33.2547 265.566 33.6956C266.364 34.2247 266.453 35.1947 266.896 35.9883C267.428 36.8701 267.694 37.9282 269.113 37.7519C269.557 37.6637 269.911 38.0164 270 38.5455C269.468 39.2509 269.291 40.0446 268.936 40.8382Z" fill="#FFBC46"/>
</svg>
