<svg width="24" height="25" viewBox="0 0 24 25" fill="none" xmlns="http://www.w3.org/2000/svg">
<g clip-path="url(#clip0_764_866)">
<path d="M10 24.3667C4.33333 23.3667 0 18.4333 0 12.5C0 5.9 5.4 0.5 12 0.5C18.6 0.5 24 5.9 24 12.5C24 18.4333 19.6667 23.3667 14 24.3667L13.3333 23.8333H10.6667L10 24.3667Z" fill="#CEC2B2"/>
<path d="M16.6667 15.8334L17.2 12.5001H14V10.1667C14 9.23342 14.3333 8.50008 15.8 8.50008H17.3333V5.43341C16.4667 5.30008 15.5333 5.16675 14.6667 5.16675C11.9333 5.16675 10 6.83341 10 9.83342V12.5001H7V15.8334H10V24.3001C10.6667 24.4334 11.3333 24.5001 12 24.5001C12.6667 24.5001 13.3333 24.4334 14 24.3001V15.8334H16.6667Z" fill="#FFFDFA"/>
</g>
<defs>
<clipPath id="clip0_764_866">
<rect width="24" height="24" fill="white" transform="translate(0 0.5)"/>
</clipPath>
</defs>
</svg>
