<svg width="24" height="25" viewBox="0 0 24 25" fill="none" xmlns="http://www.w3.org/2000/svg">
<g clip-path="url(#clip0_764_531)">
<path d="M12 2.66225C15.2041 2.66225 15.5836 2.67444 16.8489 2.73209C18.0189 2.78553 18.6544 2.981 19.0773 3.14534C19.6373 3.36303 20.0371 3.62309 20.457 4.043C20.877 4.46291 21.137 4.86266 21.3547 5.42272C21.519 5.84562 21.7145 6.48106 21.7679 7.65097C21.8256 8.91641 21.8377 9.29591 21.8377 12.5C21.8377 15.7042 21.8256 16.0837 21.7679 17.349C21.7145 18.519 21.519 19.1544 21.3547 19.5773C21.137 20.1373 20.8769 20.5372 20.457 20.9571C20.0371 21.377 19.6373 21.6371 19.0773 21.8547C18.6544 22.019 18.0189 22.2146 16.8489 22.2679C15.5838 22.3257 15.2043 22.3378 12 22.3378C8.79562 22.3378 8.41613 22.3257 7.15097 22.2679C5.98097 22.2145 5.34562 22.019 4.92272 21.8547C4.36266 21.6371 3.96281 21.377 3.54291 20.9571C3.123 20.5371 2.86294 20.1373 2.64534 19.5773C2.481 19.1545 2.28544 18.519 2.23209 17.349C2.17434 16.0837 2.16216 15.7042 2.16216 12.5C2.16216 9.29591 2.17434 8.91641 2.23209 7.65106C2.28553 6.48106 2.481 5.84562 2.64534 5.42272C2.86294 4.86266 3.123 4.46291 3.54291 4.043C3.96291 3.623 4.36266 3.36303 4.92272 3.14534C5.34553 2.981 5.98097 2.78553 7.15097 2.73209C8.41631 2.67444 8.79581 2.66225 12 2.66225ZM12 0.5C8.74097 0.5 8.33231 0.513781 7.05244 0.572187C5.77509 0.6305 4.90275 0.833375 4.13953 1.13C3.35034 1.43666 2.68116 1.847 2.01403 2.51412C1.34691 3.18125 0.936656 3.85044 0.63 4.63953C0.333281 5.40284 0.1305 6.27519 0.0721875 7.55244C0.0137812 8.83231 0 9.24097 0 12.5C0 15.759 0.0137812 16.1677 0.0721875 17.4476C0.1305 18.7249 0.333281 19.5972 0.63 20.3605C0.936562 21.1496 1.34691 21.8188 2.01403 22.486C2.68116 23.1531 3.35034 23.5633 4.13953 23.87C4.90284 24.1667 5.77509 24.3695 7.05234 24.4278C8.33231 24.4862 8.74097 24.5 12 24.5C15.259 24.5 15.6677 24.4862 16.9476 24.4278C18.2248 24.3695 19.0972 24.1667 19.8604 23.87C20.6496 23.5634 21.3188 23.1531 21.9859 22.486C22.653 21.8188 23.0633 21.1497 23.37 20.3605C23.6666 19.5972 23.8695 18.7249 23.9278 17.4477C23.9862 16.1677 24 15.759 24 12.5C24 9.24097 23.9862 8.83231 23.9278 7.55244C23.8695 6.27519 23.6666 5.40284 23.37 4.63962C23.0633 3.85044 22.653 3.18125 21.9859 2.51412C21.3188 1.847 20.6496 1.43656 19.8605 1.13C19.0972 0.833375 18.2248 0.6305 16.9476 0.572187C15.6677 0.513781 15.259 0.5 12 0.5ZM12 6.33781C8.59669 6.33781 5.83781 9.09688 5.83781 12.5C5.83781 15.9033 8.59669 18.6622 12 18.6622C15.4032 18.6622 18.1622 15.9033 18.1622 12.5C18.1622 9.09678 15.4032 6.33781 12 6.33781ZM12 16.5C9.79088 16.5 7.99997 14.7091 7.99997 12.5C7.99997 10.2909 9.79088 8.49997 12 8.49997C14.2091 8.49997 16 10.2909 16 12.5C16 14.7091 14.2091 16.5 12 16.5ZM19.8456 6.09434C19.8456 6.88972 19.2009 7.53434 18.4056 7.53434C17.6103 7.53434 16.9656 6.88972 16.9656 6.09434C16.9656 5.29906 17.6103 4.65434 18.4056 4.65434C19.2009 4.65434 19.8456 5.29906 19.8456 6.09434Z" fill="#CEC2B2"/>
</g>
<defs>
<clipPath id="clip0_764_531">
<rect width="24" height="24" fill="white" transform="translate(0 0.5)"/>
</clipPath>
</defs>
</svg>
