<svg width="141" height="45" viewBox="0 0 141 45" fill="none" xmlns="http://www.w3.org/2000/svg">
<path d="M123.521 1.98939C123.567 2.71884 123.613 3.4483 123.659 4.17775C123.705 4.9072 123.728 5.64054 123.728 6.37775V6.80844H124.807L124.727 1.91955L126.632 2.02431C126.686 2.746 126.736 3.46382 126.782 4.17775C126.828 4.89168 126.85 5.61338 126.85 6.34283C126.85 6.38163 126.85 6.44371 126.85 6.52908C126.85 6.61444 126.847 6.70756 126.839 6.80844H129.56C129.575 7.14213 129.587 7.47193 129.594 7.79786C129.61 8.12379 129.617 8.45359 129.617 8.78728C129.617 8.87264 129.617 8.958 129.617 9.04337C129.617 9.12873 129.61 9.21409 129.594 9.29945H118.906C118.822 9.29945 118.757 9.22961 118.711 9.08993C118.665 8.95024 118.631 8.79116 118.608 8.61268C118.592 8.42643 118.585 8.24795 118.585 8.07723C118.585 7.89874 118.585 7.77458 118.585 7.70474C118.585 7.5573 118.585 7.40985 118.585 7.26241C118.592 7.11497 118.596 6.96364 118.596 6.80844H121.684L121.604 1.87299L123.521 1.98939ZM130.168 3.71214C130.084 4.01479 129.992 4.29415 129.893 4.55024C129.801 4.79856 129.678 5.01585 129.525 5.20209C129.372 5.38833 129.181 5.53578 128.951 5.64442C128.722 5.7453 128.435 5.79574 128.09 5.79574C127.891 5.79574 127.715 5.77634 127.562 5.73754C127.409 5.69874 127.245 5.64054 127.069 5.56294L128.32 2.92061L130.168 3.71214ZM120.49 3.00209C120.705 3.23489 120.888 3.4871 121.041 3.7587C121.202 4.03031 121.282 4.33295 121.282 4.66664C121.282 5.05465 121.183 5.38057 120.984 5.64442C120.793 5.9005 120.529 6.10615 120.192 6.26135L118.332 4.27087L120.49 3.00209ZM135.312 3.60738C135.472 3.59962 135.633 3.59574 135.794 3.59574C135.954 3.58798 136.119 3.5841 136.287 3.5841C136.395 3.5841 136.528 3.58798 136.689 3.59574C136.858 3.59574 137.026 3.6035 137.194 3.61902C137.37 3.63454 137.531 3.6617 137.677 3.7005C137.83 3.7393 137.944 3.79362 138.021 3.86346C138.052 3.89451 138.082 4.00703 138.113 4.20103C138.143 4.39503 138.17 4.655 138.193 4.98093C138.216 5.29909 138.239 5.67158 138.262 6.09839C138.285 6.5252 138.304 6.98304 138.319 7.47193L140.925 7.40209C140.941 7.76682 140.956 8.13155 140.971 8.49627C140.987 8.85324 140.994 9.21797 140.994 9.59046C140.994 9.6215 140.994 9.65254 140.994 9.68358C141.002 9.70686 141.002 9.73402 140.994 9.76506C140.994 9.81162 140.945 9.8543 140.845 9.8931C140.746 9.92414 140.619 9.9513 140.466 9.97458C140.321 9.99786 140.16 10.0173 139.984 10.0328C139.808 10.0483 139.64 10.0638 139.479 10.0793C139.318 10.0871 139.177 10.0949 139.054 10.1026C138.939 10.1026 138.863 10.1026 138.825 10.1026C138.748 10.1104 138.675 10.1181 138.606 10.1259C138.538 10.1259 138.465 10.1259 138.388 10.1259C138.404 10.77 138.415 11.4025 138.423 12.0233C138.438 12.6441 138.45 13.2144 138.457 13.7344C138.465 14.2465 138.469 14.6889 138.469 15.0614C138.476 15.4261 138.48 15.6861 138.48 15.8413C138.48 15.9965 138.48 16.2642 138.48 16.6444C138.48 17.0169 138.476 17.4437 138.469 17.9249C138.461 18.406 138.45 18.9104 138.434 19.4381C138.419 19.958 138.396 20.443 138.365 20.8931C138.342 21.3354 138.308 21.7079 138.262 22.0106C138.224 22.321 138.17 22.5033 138.101 22.5577C137.795 22.7982 137.466 22.9845 137.114 23.1164C136.77 23.2561 136.402 23.3259 136.012 23.3259C135.66 23.3259 135.331 23.2716 135.025 23.163C134.726 23.0543 134.447 22.9108 134.186 22.7323C133.926 22.5538 133.681 22.3443 133.452 22.1037C133.222 21.8631 133.004 21.6148 132.797 21.3587L135.415 20.3809C135.415 18.6737 135.403 16.9781 135.38 15.2942C135.365 13.6025 135.35 11.903 135.334 10.1957H134.646C134.569 10.1957 134.435 10.1957 134.244 10.1957C134.06 10.1957 133.85 10.1957 133.612 10.1957C133.383 10.1957 133.134 10.1957 132.866 10.1957C132.606 10.1957 132.361 10.1919 132.131 10.1841C131.91 10.1763 131.711 10.1686 131.534 10.1608C131.366 10.1453 131.255 10.1298 131.202 10.1143C131.056 10.0677 130.941 9.93966 130.857 9.73014C130.781 9.51285 130.723 9.27229 130.685 9.00844C130.647 8.7446 130.62 8.48851 130.605 8.24019C130.597 7.9841 130.589 7.79398 130.582 7.66982L135.312 7.54178C135.304 7.05289 135.3 6.564 135.3 6.07511C135.3 5.57846 135.3 5.08181 135.3 4.58516C135.3 4.4222 135.3 4.25923 135.3 4.09627C135.3 3.93331 135.304 3.77034 135.312 3.60738ZM122.109 9.53225C122.262 9.61762 122.404 9.70686 122.534 9.79998C122.664 9.88534 122.779 9.98234 122.878 10.091C122.985 10.1996 123.066 10.3277 123.119 10.4751C123.181 10.6148 123.211 10.7778 123.211 10.964C123.211 11.2356 123.15 11.4568 123.028 11.6275C122.905 11.7982 122.752 11.9651 122.568 12.128L120.525 11.1153L122.109 9.53225ZM127.425 10.3005C127.379 10.8592 127.187 11.2822 126.85 11.5693C126.514 11.8564 126.07 12 125.519 12C125.358 12 125.228 11.9883 125.128 11.9651C125.037 11.9418 124.914 11.8991 124.761 11.837L125.611 9.63702L127.425 10.3005ZM131.867 11.8603C132.051 12.031 132.273 12.2444 132.533 12.5005C132.801 12.7488 133.058 13.0204 133.302 13.3153C133.547 13.6025 133.754 13.8973 133.922 14.2C134.098 14.4949 134.186 14.7781 134.186 15.0497C134.186 15.2592 134.144 15.4571 134.06 15.6434C133.976 15.8296 133.865 16.0042 133.727 16.1672C133.597 16.3224 133.448 16.4659 133.28 16.5979C133.111 16.722 132.947 16.8307 132.786 16.9238L129.973 14.037L131.867 11.8603ZM119.101 20.218L122.867 19.8455L122.832 18.0645L119.962 18.1809L119.893 15.9926L122.786 15.9227L122.763 14.6772L119.56 14.8053L119.492 12.6053L128.308 12.3958L128.469 14.4444L125.278 14.5725C125.293 14.7898 125.308 15.0032 125.324 15.2127C125.347 15.4222 125.366 15.6356 125.381 15.8529L128.056 15.7831L128.217 17.8317L125.496 17.9481C125.503 18.0568 125.507 18.1693 125.507 18.2857C125.507 18.3943 125.507 18.503 125.507 18.6116C125.507 18.6504 125.507 18.7164 125.507 18.8095C125.507 18.8949 125.503 18.988 125.496 19.0889C125.488 19.1898 125.477 19.2868 125.461 19.3799C125.446 19.473 125.423 19.5428 125.392 19.5894L128.974 19.2402L128.986 19.5196C128.986 19.9153 128.913 20.2995 128.768 20.6719C128.63 21.0367 128.4 21.3393 128.079 21.5799C127.933 21.6885 127.669 21.7933 127.287 21.8942C126.904 21.9951 126.456 22.0882 125.944 22.1735C125.438 22.2589 124.899 22.3326 124.325 22.3947C123.751 22.4645 123.2 22.5227 122.672 22.5693C122.144 22.6159 121.665 22.6508 121.237 22.6741C120.808 22.6973 120.487 22.709 120.272 22.709C120.257 22.709 120.242 22.709 120.226 22.709C120.211 22.7167 120.196 22.7167 120.18 22.709C120.142 22.7012 120.089 22.6353 120.02 22.5111C119.958 22.3869 119.886 22.2317 119.802 22.0455C119.725 21.867 119.645 21.673 119.56 21.4635C119.484 21.254 119.411 21.06 119.342 20.8815C119.273 20.703 119.216 20.5517 119.17 20.4275C119.124 20.2956 119.101 20.2257 119.101 20.218Z" fill="#FFBC46"/>
<path d="M109.396 2.30377C109.48 2.44345 109.572 2.60254 109.671 2.78102C109.778 2.9595 109.874 3.14575 109.958 3.33975C110.05 3.526 110.126 3.71612 110.188 3.91012C110.249 4.09637 110.28 4.27097 110.28 4.43393C110.28 4.45721 110.276 4.48049 110.268 4.50377C110.268 4.51929 110.268 4.53482 110.268 4.55034C110.253 4.66674 110.157 4.80254 109.981 4.95774C109.805 5.11295 109.572 5.27979 109.281 5.45827C108.998 5.629 108.668 5.8036 108.293 5.98208C107.926 6.16057 107.543 6.33517 107.145 6.50589C106.747 6.67662 106.346 6.8357 105.94 6.98314C105.542 7.13059 105.167 7.26251 104.815 7.37891C104.47 7.48755 104.161 7.57679 103.885 7.64664C103.609 7.70872 103.403 7.73976 103.265 7.73976C102.982 7.73976 102.695 7.6544 102.404 7.48367C102.121 7.30519 101.849 7.09178 101.589 6.84346C101.336 6.59514 101.099 6.33129 100.877 6.05192C100.663 5.7648 100.475 5.51647 100.315 5.30695L109.396 2.30377ZM95.7798 4.81806C96.0018 4.88014 96.2429 4.95774 96.5031 5.05087C96.771 5.13623 97.0159 5.24875 97.2378 5.38843C97.4674 5.52811 97.6588 5.69884 97.8118 5.9006C97.9649 6.10237 98.0415 6.34681 98.0415 6.63394C98.0415 6.98314 97.9687 7.28579 97.8233 7.54187C97.6856 7.7902 97.4904 8.023 97.2378 8.24029L94.5629 7.07626L95.7798 4.81806ZM100.073 7.15775C100.188 7.18103 100.364 7.22371 100.602 7.28579C100.846 7.34011 101.095 7.40607 101.348 7.48367C101.6 7.56127 101.83 7.65052 102.037 7.7514C102.251 7.84452 102.381 7.9454 102.427 8.05404C102.458 8.12389 102.484 8.29073 102.507 8.55457C102.538 8.81066 102.565 9.12494 102.588 9.49743C102.618 9.86216 102.641 10.254 102.657 10.6731C102.68 11.0921 102.699 11.4957 102.714 11.8837C102.737 12.2639 102.752 12.6054 102.76 12.908C102.768 13.2107 102.771 13.4241 102.771 13.5482C102.771 13.8121 102.768 14.1458 102.76 14.5493C102.752 14.9528 102.733 15.3951 102.702 15.8763C102.68 16.3574 102.637 16.8618 102.576 17.3895C102.523 17.9172 102.442 18.4371 102.335 18.9493C102.236 19.4615 102.109 19.9504 101.956 20.416C101.803 20.8738 101.616 21.2812 101.394 21.6382C101.179 21.9874 100.923 22.2629 100.625 22.4646C100.334 22.6742 99.9969 22.7789 99.6143 22.7789C99.3847 22.7789 99.1704 22.7401 98.9714 22.6625C98.7724 22.5927 98.5734 22.5073 98.3744 22.4064C98.5657 22.096 98.7341 21.6847 98.8795 21.1726C99.0249 20.6526 99.1512 20.0706 99.2584 19.4265C99.3732 18.7747 99.4688 18.0763 99.5454 17.3313C99.6296 16.5863 99.6985 15.8258 99.752 15.0498C99.8133 14.2738 99.863 13.5056 99.9013 12.7451C99.9395 11.9768 99.9702 11.2473 99.9931 10.5567C100.016 9.85828 100.031 9.21807 100.039 8.63605C100.054 8.05404 100.066 7.56127 100.073 7.15775ZM110.624 7.18103L111.761 9.34611C111.363 9.58667 110.934 9.82724 110.475 10.0678C110.023 10.3084 109.556 10.5295 109.074 10.7313C108.592 10.9253 108.106 11.0921 107.616 11.2318C107.126 11.3637 106.64 11.4413 106.158 11.4646V13.8974C106.158 14.0138 106.158 14.2389 106.158 14.5726C106.158 14.8985 106.162 15.2749 106.17 15.7017C106.177 16.1207 106.189 16.563 106.204 17.0287C106.219 17.4943 106.242 17.9288 106.273 18.3324C106.304 18.7281 106.342 19.0657 106.388 19.3451C106.434 19.6244 106.491 19.7874 106.56 19.834C106.621 19.8728 106.682 19.8999 106.744 19.9154C106.812 19.9232 106.881 19.9271 106.95 19.9271C107.134 19.9271 107.344 19.8999 107.582 19.8456C107.827 19.7913 108.071 19.7253 108.316 19.6477C108.561 19.5701 108.802 19.4886 109.04 19.4033C109.277 19.3179 109.48 19.2442 109.648 19.1821C109.304 18.7087 108.959 18.216 108.615 17.7038C108.27 17.1839 107.953 16.6911 107.662 16.2255C107.371 15.7599 107.115 15.3447 106.893 14.98C106.679 14.6153 106.518 14.3475 106.411 14.1768C106.418 14.169 106.468 14.1264 106.56 14.0488C106.652 13.9634 106.767 13.8586 106.904 13.7345C107.05 13.6026 107.203 13.4629 107.364 13.3154C107.524 13.168 107.674 13.0283 107.811 12.8964C107.949 12.7645 108.064 12.6519 108.156 12.5588C108.255 12.4657 108.309 12.4114 108.316 12.3958L109.063 13.4085L110.498 11.3948L112.3 12.8382C112.162 13.0322 112.021 13.2378 111.875 13.4551C111.73 13.6646 111.577 13.8703 111.416 14.072C111.255 14.2738 111.079 14.4639 110.888 14.6424C110.704 14.8131 110.505 14.9567 110.291 15.0731L114.114 20.253C113.869 20.5944 113.586 20.8699 113.264 21.0795C112.951 21.2812 112.591 21.4325 112.185 21.5334C112.162 21.5412 112.132 21.5451 112.093 21.5451C111.956 21.5451 111.795 21.4869 111.611 21.3705C111.435 21.2463 111.244 21.0795 111.037 20.8699C110.831 20.6526 110.609 20.4043 110.371 20.125C110.142 19.8378 109.908 19.5313 109.671 19.2054C109.61 19.9116 109.441 20.5013 109.166 20.9747C108.898 21.4481 108.55 21.8244 108.121 22.1038C107.693 22.3909 107.199 22.5927 106.64 22.7091C106.082 22.8255 105.485 22.8837 104.849 22.8837C104.65 22.8837 104.448 22.8759 104.241 22.8604C104.042 22.8449 103.843 22.8294 103.644 22.8139L103.69 10.8128C103.361 10.5722 103.07 10.2734 102.817 9.91648L110.624 7.18103ZM93.2312 10.3239L93.7248 10.3122C94.0386 10.3122 94.3371 10.3394 94.6203 10.3937C94.9111 10.4481 95.1675 10.5451 95.3895 10.6847C95.6114 10.8167 95.7875 11.0029 95.9176 11.2435C96.0553 11.4763 96.1242 11.775 96.1242 12.1398C96.1242 12.4967 96.0592 12.811 95.9291 13.0826C95.7989 13.3465 95.6229 13.6103 95.401 13.8742L92.3357 12.8382L93.2312 10.3239ZM93.2312 19.1472L97.5708 17.5059C97.632 17.6844 97.6779 17.859 97.7085 18.0297C97.7391 18.1927 97.7544 18.3673 97.7544 18.5535C97.7544 18.9648 97.6856 19.3489 97.5478 19.7059C97.41 20.0551 97.2187 20.3616 96.9738 20.6255C96.7289 20.8816 96.4342 21.0833 96.0898 21.2308C95.7454 21.3782 95.3665 21.4519 94.9532 21.4519C94.8843 21.4519 94.8155 21.4519 94.7466 21.4519C94.6777 21.4442 94.6088 21.4403 94.5399 21.4403L93.2312 19.1472Z" fill="#FFBC46"/>
<path d="M74.2035 5.12057H76.557L76.5914 2.87401H79.496L79.5075 3.74702C79.5075 3.94879 79.5036 4.16607 79.496 4.39888C79.4883 4.63168 79.4768 4.87224 79.4615 5.12057H82.102L82.4694 2.78088C82.4771 2.78088 82.5306 2.78476 82.6301 2.79252C82.7373 2.80028 82.8636 2.8158 83.009 2.83908C83.1544 2.85461 83.3113 2.87401 83.4797 2.89729C83.6481 2.91281 83.8088 2.93221 83.9618 2.95549C84.1149 2.97877 84.245 3.00205 84.3522 3.02533C84.4593 3.04861 84.5206 3.07189 84.5359 3.09517C84.5665 3.12621 84.5933 3.23873 84.6162 3.43274C84.6468 3.62674 84.6698 3.83626 84.6851 4.06131C84.7081 4.28635 84.7272 4.50364 84.7425 4.71316C84.7578 4.91493 84.7655 5.05073 84.7655 5.12057H87.5667C87.5897 5.43098 87.6126 5.74138 87.6356 6.05179C87.6585 6.36219 87.67 6.6726 87.67 6.98301C87.67 7.02181 87.67 7.06061 87.67 7.09941C87.67 7.13045 87.6662 7.16537 87.6585 7.20417C87.6509 7.23521 87.6203 7.25849 87.5667 7.27401C87.5131 7.28177 87.4787 7.28953 87.4634 7.29729C87.0577 7.39041 86.6253 7.43697 86.1661 7.43697C85.7069 7.43697 85.2706 7.44085 84.8573 7.44861H84.5818C84.5282 7.72022 84.4593 7.9569 84.3751 8.15867C84.291 8.35267 84.1838 8.5234 84.0537 8.67084C83.9312 8.81828 83.7743 8.94244 83.583 9.04333C83.3993 9.13645 83.1774 9.21793 82.9171 9.28777C82.81 9.31881 82.699 9.34597 82.5842 9.36925C82.4771 9.38477 82.3661 9.39253 82.2513 9.39253C82.1059 9.39253 81.9681 9.37701 81.838 9.34597C81.7155 9.31493 81.5854 9.27613 81.4476 9.22957L81.7347 7.46025C81.2831 7.45249 80.8354 7.44861 80.3914 7.44861C79.9552 7.44085 79.5113 7.42921 79.0597 7.41369C78.9296 7.84826 78.7536 8.24791 78.5316 8.61264C78.3173 8.97736 78.0418 9.27225 77.705 9.49729C77.5749 9.59042 77.4448 9.66802 77.3147 9.7301C77.1846 9.78442 77.0392 9.81158 76.8784 9.81158C76.8096 9.81158 76.7407 9.80382 76.6718 9.7883C76.6106 9.76502 76.5493 9.74174 76.4881 9.71846L76.5226 7.35549C76.4613 7.35549 76.4039 7.35549 76.3503 7.35549C76.2968 7.34773 76.2394 7.34385 76.1781 7.34385C76.0021 7.33609 75.8069 7.33221 75.5926 7.33221C75.386 7.33221 75.1947 7.31281 75.0186 7.27401C74.8349 7.22745 74.6933 7.11881 74.5938 6.94808C74.4943 6.7696 74.4178 6.57172 74.3642 6.35443C74.3107 6.12939 74.2724 5.90434 74.2494 5.6793C74.2341 5.45426 74.2188 5.26801 74.2035 5.12057ZM65.9261 4.91105L68.7848 5.09729C68.7848 5.19817 68.7848 5.29517 68.7848 5.38829C68.7848 5.48142 68.7886 5.57842 68.7962 5.6793L73.2392 5.43486C73.2392 5.5047 73.2392 5.66766 73.2392 5.92374C73.2392 6.17983 73.2353 6.49412 73.2277 6.8666C73.2277 7.23133 73.2239 7.63874 73.2162 8.08883C73.2085 8.53892 73.1971 8.99676 73.1818 9.46237C73.1741 9.92798 73.1626 10.3858 73.1473 10.8359C73.132 11.2782 73.109 11.6818 73.0784 12.0465C73.0555 12.4035 73.0249 12.7022 72.9866 12.9428C72.9483 13.1756 72.9062 13.3153 72.8603 13.3618C72.7838 13.4317 72.669 13.4899 72.5159 13.5365C72.3705 13.5753 72.2098 13.6063 72.0337 13.6296C71.8653 13.6529 71.697 13.6684 71.5286 13.6761C71.3602 13.6761 71.2224 13.6761 71.1153 13.6761C70.9852 13.6761 70.8551 13.6761 70.725 13.6761C70.5948 13.6684 70.4647 13.6645 70.3346 13.6645C70.3423 13.5481 70.3461 13.4317 70.3461 13.3153C70.3461 13.1989 70.3499 13.0825 70.3576 12.9661L68.8536 12.9544V13.3618C68.8536 13.4084 68.7924 13.4472 68.67 13.4783C68.5552 13.5015 68.4212 13.5209 68.2681 13.5365C68.1227 13.5442 67.9811 13.5481 67.8434 13.5481C67.7133 13.5481 67.6291 13.5481 67.5908 13.5481C67.5449 13.5481 67.4454 13.5481 67.2923 13.5481C67.1392 13.5403 66.9747 13.5365 66.7987 13.5365C66.6303 13.5287 66.4772 13.5248 66.3394 13.5248C66.2017 13.5171 66.1251 13.5093 66.1098 13.5015C66.1022 13.4938 66.0945 13.4783 66.0869 13.455C66.0869 13.4239 66.0869 13.4045 66.0869 13.3968C66.0486 13.1019 66.0295 12.8031 66.0295 12.5005C66.0295 12.1901 66.0256 11.8874 66.018 11.5925C65.9874 10.4751 65.9682 9.36149 65.9606 8.25179C65.9529 7.14209 65.9415 6.02851 65.9261 4.91105ZM70.415 10.9756C70.4226 10.7195 70.4265 10.4634 70.4265 10.2073C70.4341 9.9435 70.4379 9.67966 70.4379 9.41581C70.4379 9.30717 70.4379 9.15585 70.4379 8.96184C70.4379 8.76008 70.4341 8.55444 70.4265 8.34491C70.4188 8.12763 70.4073 7.92586 70.392 7.73962C70.3767 7.54562 70.3538 7.39817 70.3231 7.29729C70.2925 7.18865 70.2275 7.10329 70.128 7.04121C70.0285 6.97913 69.9175 6.93256 69.795 6.90152C69.6726 6.87048 69.5463 6.85496 69.4162 6.85496C69.2861 6.8472 69.1751 6.84332 69.0833 6.84332C69.0373 6.84332 68.9914 6.84332 68.9455 6.84332C68.8996 6.84332 68.8536 6.8472 68.8077 6.85496C68.8154 7.55338 68.8192 8.24403 68.8192 8.92692C68.8269 9.60982 68.8345 10.3005 68.8422 10.9989L70.415 10.9756ZM75.0186 10.3238L77.8428 10.5798V10.5915L86.9927 10.382C86.9927 10.4828 86.9927 10.7195 86.9927 11.092C86.9927 11.4567 86.9888 11.9068 86.9812 12.4423C86.9812 12.97 86.9774 13.5597 86.9697 14.2116C86.9621 14.8557 86.9506 15.5153 86.9353 16.1904C86.9276 16.8578 86.9123 17.5135 86.8894 18.1576C86.8664 18.794 86.8396 19.3682 86.809 19.8804C86.7784 20.3925 86.7401 20.8194 86.6942 21.1608C86.6559 21.5022 86.6062 21.7079 86.5449 21.7777C86.4301 21.9174 86.2618 22.0222 86.0398 22.092C85.8178 22.1619 85.5768 22.2123 85.3165 22.2433C85.0563 22.2821 84.7999 22.3054 84.5473 22.3132C84.2948 22.3209 84.0881 22.3248 83.9274 22.3248C83.9351 22.2239 83.9389 22.1231 83.9389 22.0222C83.9465 21.9291 83.9542 21.8359 83.9618 21.7428L77.9117 21.9174C77.9117 21.9562 77.9117 21.9911 77.9117 22.0222C77.9117 22.061 77.9079 22.0998 77.9002 22.1386C77.8925 22.2084 77.8313 22.2589 77.7165 22.2899C77.6017 22.3287 77.4716 22.3559 77.3262 22.3714C77.1884 22.3869 77.0545 22.3947 76.9244 22.3947C76.7943 22.3947 76.7062 22.3947 76.6603 22.3947C76.4154 22.3947 76.1705 22.3869 75.9256 22.3714C75.6883 22.3636 75.4472 22.352 75.2023 22.3365C75.1717 22.0571 75.1526 21.7777 75.1449 21.4984C75.1373 21.2112 75.1296 20.928 75.1219 20.6486C75.1066 19.989 75.0952 19.3333 75.0875 18.6814C75.0798 18.0218 75.0722 17.3622 75.0645 16.7026C75.0492 15.6395 75.0378 14.5802 75.0301 13.5248C75.0301 12.4617 75.0263 11.3947 75.0186 10.3238ZM79.6567 15.1544L79.6108 12.3375C79.0291 12.3608 78.4436 12.3957 77.8543 12.4423L77.8772 15.1544H79.6567ZM84.1915 15.1544V14.8984C84.1915 14.7587 84.1915 14.6112 84.1915 14.456C84.1991 14.3008 84.1991 14.1417 84.1915 13.9788C84.1838 13.8158 84.1723 13.6567 84.157 13.5015C84.1494 13.3386 84.1264 13.1911 84.0881 13.0592C84.0575 12.9428 83.981 12.8458 83.8585 12.7682C83.7361 12.6828 83.583 12.613 83.3993 12.5587C83.2233 12.5044 83.0281 12.4617 82.8138 12.4306C82.5995 12.3996 82.3814 12.3763 82.1594 12.3608C82.1824 12.8264 82.2053 13.292 82.2283 13.7576C82.2589 14.2232 82.2857 14.6888 82.3087 15.1544H84.1915ZM84.0537 19.7756C84.069 19.3566 84.0843 18.9453 84.0996 18.5417C84.1149 18.1382 84.1302 17.7269 84.1455 17.3079L82.4005 17.3777C82.4082 17.6261 82.412 17.8783 82.412 18.1343C82.4196 18.3827 82.4235 18.631 82.4235 18.8793C82.4235 18.9414 82.4196 19.0694 82.412 19.2634C82.412 19.4574 82.4043 19.6515 82.389 19.8455L84.0537 19.7756ZM79.7256 19.9386L79.6911 17.5058L77.8887 17.5873C77.8964 17.9908 77.9002 18.3943 77.9002 18.7978C77.9002 19.1936 77.9002 19.5971 77.9002 20.0084L79.7256 19.9386Z" fill="#FFBC46"/>
<path d="M47.7711 5.12057H50.1246L50.1591 2.87401H53.0636L53.0751 3.74702C53.0751 3.94879 53.0713 4.16607 53.0636 4.39888C53.0559 4.63168 53.0445 4.87224 53.0292 5.12057H55.6697L56.037 2.78088C56.0447 2.78088 56.0983 2.78476 56.1978 2.79252C56.3049 2.80028 56.4312 2.8158 56.5766 2.83908C56.722 2.85461 56.8789 2.87401 57.0473 2.89729C57.2157 2.91281 57.3764 2.93221 57.5295 2.95549C57.6825 2.97877 57.8127 3.00205 57.9198 3.02533C58.027 3.04861 58.0882 3.07189 58.1035 3.09517C58.1341 3.12621 58.1609 3.23873 58.1839 3.43274C58.2145 3.62674 58.2374 3.83626 58.2527 4.06131C58.2757 4.28635 58.2948 4.50364 58.3101 4.71316C58.3255 4.91493 58.3331 5.05073 58.3331 5.12057H61.1343C61.1573 5.43098 61.1802 5.74138 61.2032 6.05179C61.2262 6.36219 61.2376 6.6726 61.2376 6.98301C61.2376 7.02181 61.2376 7.06061 61.2376 7.09941C61.2376 7.13045 61.2338 7.16537 61.2262 7.20417C61.2185 7.23521 61.1879 7.25849 61.1343 7.27401C61.0807 7.28177 61.0463 7.28953 61.031 7.29729C60.6254 7.39041 60.1929 7.43697 59.7337 7.43697C59.2745 7.43697 58.8382 7.44085 58.4249 7.44861H58.1494C58.0958 7.72022 58.027 7.9569 57.9428 8.15867C57.8586 8.35267 57.7514 8.5234 57.6213 8.67084C57.4989 8.81828 57.342 8.94244 57.1506 9.04333C56.9669 9.13645 56.745 9.21793 56.4848 9.28777C56.3776 9.31881 56.2666 9.34597 56.1518 9.36925C56.0447 9.38477 55.9337 9.39253 55.8189 9.39253C55.6735 9.39253 55.5357 9.37701 55.4056 9.34597C55.2831 9.31493 55.153 9.27613 55.0153 9.22957L55.3023 7.46025C54.8507 7.45249 54.403 7.44861 53.9591 7.44861C53.5228 7.44085 53.0789 7.42921 52.6273 7.41369C52.4972 7.84826 52.3212 8.24791 52.0992 8.61264C51.8849 8.97736 51.6094 9.27225 51.2727 9.49729C51.1425 9.59042 51.0124 9.66802 50.8823 9.7301C50.7522 9.78442 50.6068 9.81158 50.4461 9.81158C50.3772 9.81158 50.3083 9.80382 50.2394 9.7883C50.1782 9.76502 50.117 9.74174 50.0557 9.71846L50.0902 7.35549C50.029 7.35549 49.9715 7.35549 49.918 7.35549C49.8644 7.34773 49.807 7.34385 49.7458 7.34385C49.5697 7.33609 49.3746 7.33221 49.1603 7.33221C48.9536 7.33221 48.7623 7.31281 48.5862 7.27401C48.4026 7.22745 48.261 7.11881 48.1615 6.94808C48.062 6.7696 47.9854 6.57172 47.9319 6.35443C47.8783 6.12939 47.84 5.90434 47.8171 5.6793C47.8018 5.45426 47.7864 5.26801 47.7711 5.12057ZM39.4938 4.91105L42.3524 5.09729C42.3524 5.19817 42.3524 5.29517 42.3524 5.38829C42.3524 5.48142 42.3562 5.57842 42.3639 5.6793L46.8068 5.43486C46.8068 5.5047 46.8068 5.66766 46.8068 5.92374C46.8068 6.17983 46.803 6.49412 46.7953 6.8666C46.7953 7.23133 46.7915 7.63874 46.7838 8.08883C46.7762 8.53892 46.7647 8.99676 46.7494 9.46237C46.7417 9.92798 46.7303 10.3858 46.7149 10.8359C46.6996 11.2782 46.6767 11.6818 46.6461 12.0465C46.6231 12.4035 46.5925 12.7022 46.5542 12.9428C46.5159 13.1756 46.4739 13.3153 46.4279 13.3618C46.3514 13.4317 46.2366 13.4899 46.0835 13.5365C45.9381 13.5753 45.7774 13.6063 45.6013 13.6296C45.433 13.6529 45.2646 13.6684 45.0962 13.6761C44.9278 13.6761 44.7901 13.6761 44.6829 13.6761C44.5528 13.6761 44.4227 13.6761 44.2926 13.6761C44.1625 13.6684 44.0324 13.6645 43.9022 13.6645C43.9099 13.5481 43.9137 13.4317 43.9137 13.3153C43.9137 13.1989 43.9176 13.0825 43.9252 12.9661L42.4213 12.9544V13.3618C42.4213 13.4084 42.36 13.4472 42.2376 13.4783C42.1228 13.5015 41.9888 13.5209 41.8358 13.5365C41.6904 13.5442 41.5488 13.5481 41.411 13.5481C41.2809 13.5481 41.1967 13.5481 41.1584 13.5481C41.1125 13.5481 41.013 13.5481 40.8599 13.5481C40.7069 13.5403 40.5423 13.5365 40.3663 13.5365C40.1979 13.5287 40.0448 13.5248 39.9071 13.5248C39.7693 13.5171 39.6928 13.5093 39.6775 13.5015C39.6698 13.4938 39.6622 13.4783 39.6545 13.455C39.6545 13.4239 39.6545 13.4045 39.6545 13.3968C39.6162 13.1019 39.5971 12.8031 39.5971 12.5005C39.5971 12.1901 39.5933 11.8874 39.5856 11.5925C39.555 10.4751 39.5359 9.36149 39.5282 8.25179C39.5206 7.14209 39.5091 6.02851 39.4938 4.91105ZM43.9826 10.9756C43.9903 10.7195 43.9941 10.4634 43.9941 10.2073C44.0017 9.9435 44.0056 9.67966 44.0056 9.41581C44.0056 9.30717 44.0056 9.15585 44.0056 8.96184C44.0056 8.76008 44.0017 8.55444 43.9941 8.34491C43.9864 8.12763 43.975 7.92586 43.9596 7.73962C43.9443 7.54562 43.9214 7.39817 43.8908 7.29729C43.8602 7.18865 43.7951 7.10329 43.6956 7.04121C43.5961 6.97913 43.4851 6.93256 43.3627 6.90152C43.2402 6.87048 43.1139 6.85496 42.9838 6.85496C42.8537 6.8472 42.7427 6.84332 42.6509 6.84332C42.605 6.84332 42.559 6.84332 42.5131 6.84332C42.4672 6.84332 42.4213 6.8472 42.3754 6.85496C42.383 7.55338 42.3868 8.24403 42.3868 8.92692C42.3945 9.60982 42.4021 10.3005 42.4098 10.9989L43.9826 10.9756ZM48.5862 10.3238L51.4104 10.5798V10.5915L60.5603 10.382C60.5603 10.4828 60.5603 10.7195 60.5603 11.092C60.5603 11.4567 60.5565 11.9068 60.5488 12.4423C60.5488 12.97 60.545 13.5597 60.5373 14.2116C60.5297 14.8557 60.5182 15.5153 60.5029 16.1904C60.4952 16.8578 60.4799 17.5135 60.457 18.1576C60.434 18.794 60.4072 19.3682 60.3766 19.8804C60.346 20.3925 60.3077 20.8194 60.2618 21.1608C60.2235 21.5022 60.1738 21.7079 60.1126 21.7777C59.9978 21.9174 59.8294 22.0222 59.6074 22.092C59.3855 22.1619 59.1444 22.2123 58.8842 22.2433C58.6239 22.2821 58.3675 22.3054 58.115 22.3132C57.8624 22.3209 57.6558 22.3248 57.495 22.3248C57.5027 22.2239 57.5065 22.1231 57.5065 22.0222C57.5142 21.9291 57.5218 21.8359 57.5295 21.7428L51.4793 21.9174C51.4793 21.9562 51.4793 21.9911 51.4793 22.0222C51.4793 22.061 51.4755 22.0998 51.4678 22.1386C51.4602 22.2084 51.3989 22.2589 51.2841 22.2899C51.1693 22.3287 51.0392 22.3559 50.8938 22.3714C50.756 22.3869 50.6221 22.3947 50.492 22.3947C50.3619 22.3947 50.2739 22.3947 50.2279 22.3947C49.983 22.3947 49.7381 22.3869 49.4932 22.3714C49.2559 22.3636 49.0148 22.352 48.7699 22.3365C48.7393 22.0571 48.7202 21.7777 48.7125 21.4984C48.7049 21.2112 48.6972 20.928 48.6896 20.6486C48.6743 19.989 48.6628 19.3333 48.6551 18.6814C48.6475 18.0218 48.6398 17.3622 48.6322 16.7026C48.6169 15.6395 48.6054 14.5802 48.5977 13.5248C48.5977 12.4617 48.5939 11.3947 48.5862 10.3238ZM53.2243 15.1544L53.1784 12.3375C52.5967 12.3608 52.0112 12.3957 51.4219 12.4423L51.4449 15.1544H53.2243ZM57.7591 15.1544V14.8984C57.7591 14.7587 57.7591 14.6112 57.7591 14.456C57.7667 14.3008 57.7667 14.1417 57.7591 13.9788C57.7514 13.8158 57.74 13.6567 57.7246 13.5015C57.717 13.3386 57.694 13.1911 57.6558 13.0592C57.6251 12.9428 57.5486 12.8458 57.4262 12.7682C57.3037 12.6828 57.1506 12.613 56.9669 12.5587C56.7909 12.5044 56.5957 12.4617 56.3814 12.4306C56.1671 12.3996 55.949 12.3763 55.7271 12.3608C55.75 12.8264 55.773 13.292 55.7959 13.7576C55.8266 14.2232 55.8533 14.6888 55.8763 15.1544H57.7591ZM57.6213 19.7756C57.6366 19.3566 57.6519 18.9453 57.6672 18.5417C57.6825 18.1382 57.6979 17.7269 57.7132 17.3079L55.9681 17.3777C55.9758 17.6261 55.9796 17.8783 55.9796 18.1343C55.9873 18.3827 55.9911 18.631 55.9911 18.8793C55.9911 18.9414 55.9873 19.0694 55.9796 19.2634C55.9796 19.4574 55.972 19.6515 55.9567 19.8455L57.6213 19.7756ZM53.2932 19.9386L53.2588 17.5058L51.4563 17.5873C51.464 17.9908 51.4678 18.3943 51.4678 18.7978C51.4678 19.1936 51.4678 19.5971 51.4678 20.0084L53.2932 19.9386Z" fill="#FFBC46"/>
<path d="M130.151 45.0001C129.709 45.0001 129.313 44.9157 128.963 44.7469C128.613 44.584 128.283 44.3483 127.973 44.0398L128.042 43.1406C128.162 43.2163 128.297 43.289 128.446 43.3589C128.596 43.4287 128.745 43.4636 128.894 43.4636C129.015 43.4636 129.118 43.4229 129.204 43.3414C129.296 43.2657 129.37 43.1697 129.428 43.0533C129.491 42.9427 129.537 42.8205 129.566 42.6866C129.594 42.5586 129.609 42.4451 129.609 42.3462V40.1461C129.322 40.379 129.015 40.5652 128.687 40.7049C128.36 40.8446 127.999 40.9144 127.602 40.9144C127.476 40.9144 127.347 40.9086 127.215 40.8969C127.083 40.8795 126.951 40.8533 126.819 40.8184C126.693 40.7835 126.569 40.734 126.449 40.67C126.334 40.6059 126.231 40.5274 126.139 40.4342C125.961 40.248 125.814 40.0559 125.7 39.8581C125.591 39.6543 125.502 39.4448 125.433 39.2295C125.364 39.0083 125.312 38.7813 125.278 38.5485C125.249 38.3099 125.226 38.0655 125.209 37.8152C125.186 37.5416 125.169 37.271 125.157 37.0033C125.151 36.7297 125.149 36.4533 125.149 36.1739C125.149 35.6501 125.16 35.1292 125.183 34.6112C125.206 34.0874 125.249 33.5665 125.312 33.0485C125.312 33.0136 125.318 32.9438 125.329 32.839C125.347 32.7342 125.364 32.6237 125.381 32.5073C125.398 32.3908 125.418 32.289 125.441 32.2017C125.47 32.1086 125.496 32.062 125.519 32.062H127.766C127.726 32.6615 127.691 33.258 127.663 33.8517C127.64 34.4395 127.628 35.0332 127.628 35.6327C127.628 35.8305 127.628 36.0401 127.628 36.2612C127.628 36.4824 127.631 36.7036 127.637 36.9247C127.648 37.1459 127.663 37.367 127.68 37.5882C127.703 37.8036 127.732 38.0102 127.766 38.2081C127.823 38.5049 127.953 38.7522 128.154 38.9501C128.354 39.148 128.607 39.2469 128.911 39.2469C129.032 39.2469 129.149 39.2295 129.264 39.1946C129.379 39.1596 129.494 39.116 129.609 39.0636V32.1319H131.856C131.862 33.5345 131.867 34.9342 131.873 36.3311C131.879 37.7221 131.882 39.1218 131.882 40.5303C131.882 41.0657 131.882 41.5983 131.882 42.1279C131.888 42.6633 131.879 43.1988 131.856 43.7342C131.77 43.9263 131.672 44.1009 131.563 44.2581C131.46 44.4152 131.339 44.5462 131.202 44.6509C131.064 44.7615 130.909 44.8459 130.737 44.9041C130.564 44.9681 130.369 45.0001 130.151 45.0001Z" fill="#3A200B"/>
<path d="M123.707 31.7565V33.5374H122.364C122.369 33.7819 122.372 34.0205 122.372 34.2533C122.378 34.4861 122.384 34.7248 122.39 34.9692C122.39 35.1089 122.39 35.2835 122.39 35.493C122.395 35.6967 122.401 35.9062 122.407 36.1216C122.413 36.3311 122.421 36.5377 122.433 36.7414C122.45 36.9393 122.473 37.1052 122.501 37.239C122.542 37.4078 122.593 37.6115 122.656 37.8502C122.725 38.083 122.811 38.3099 122.915 38.5311C123.024 38.7523 123.153 38.9443 123.302 39.1073C123.457 39.2703 123.638 39.3663 123.845 39.3954L123.724 40.6962H123.716C123.44 40.7835 123.167 40.865 122.898 40.9406C122.628 41.0105 122.349 41.0454 122.062 41.0454C121.793 41.0454 121.537 41.0017 121.296 40.9144C121.055 40.8213 120.851 40.6642 120.685 40.443C120.507 40.2044 120.369 39.9047 120.271 39.5438C120.18 39.183 120.111 38.8046 120.065 38.4089C120.025 38.0073 120.002 37.6144 119.996 37.2303C119.996 36.8404 119.996 36.4999 119.996 36.2089C119.996 35.7607 120.002 35.3155 120.013 34.8732C120.025 34.4308 120.039 33.9856 120.056 33.5374H119.057V31.7565H120.134C120.157 31.3665 120.177 30.9795 120.194 30.5954C120.217 30.2054 120.243 29.8155 120.271 29.4255L122.364 29.5739V31.7565H123.707Z" fill="#3A200B"/>
<path d="M115.756 31.8962V32.7867C115.922 32.6877 116.094 32.6121 116.272 32.5597C116.45 32.5015 116.64 32.4724 116.841 32.4724C116.996 32.4724 117.151 32.4869 117.306 32.516C117.461 32.5451 117.613 32.5859 117.762 32.6382L117.702 33.8343C117.575 33.7819 117.435 33.7557 117.28 33.7557C117.108 33.7557 116.947 33.8052 116.798 33.9041C116.648 33.9972 116.511 34.1253 116.384 34.2882C116.258 34.4454 116.143 34.6287 116.04 34.8382C115.937 35.0478 115.842 35.266 115.756 35.493V40.3819H113.267V31.8962H115.756Z" fill="#3A200B"/>
<path d="M109.466 40.5388C109.466 40.4283 109.466 40.3031 109.466 40.1634C109.466 40.0179 109.464 39.8579 109.458 39.6833C109.24 39.7764 109.007 39.855 108.76 39.919C108.514 39.983 108.264 40.0354 108.011 40.0761C107.759 40.1169 107.509 40.146 107.262 40.1634C107.021 40.1751 106.794 40.1809 106.582 40.1809C106.364 40.1809 106.117 40.1547 105.842 40.1023C105.566 40.0499 105.328 39.9772 105.127 39.8841C104.777 39.7211 104.536 39.4883 104.404 39.1857C104.272 38.883 104.206 38.5454 104.206 38.173C104.206 38.1031 104.206 38.0275 104.206 37.946C104.211 37.8645 104.22 37.7888 104.231 37.719C104.266 37.5502 104.329 37.3872 104.421 37.2301C104.518 37.0671 104.63 36.9158 104.757 36.7761C104.889 36.6306 105.029 36.4997 105.179 36.3833C105.334 36.2669 105.483 36.1708 105.626 36.0952C106.074 35.8507 106.53 35.682 106.995 35.5888C107.46 35.4957 107.945 35.4491 108.45 35.4491C108.514 35.4491 108.58 35.4491 108.648 35.4491C108.723 35.4491 108.795 35.4521 108.864 35.4579C108.703 35.0388 108.499 34.6954 108.252 34.4277C108.011 34.16 107.707 34.0261 107.34 34.0261C107.173 34.0261 107.001 34.0581 106.823 34.1222C106.651 34.1862 106.482 34.2677 106.315 34.3666C106.154 34.4655 105.999 34.5761 105.85 34.6984C105.707 34.8148 105.575 34.9282 105.454 35.0388L104.111 34.0087C104.163 33.7584 104.26 33.5285 104.404 33.319C104.553 33.1095 104.731 32.9232 104.937 32.7603C105.144 32.5915 105.371 32.446 105.618 32.3237C105.87 32.1957 106.129 32.0909 106.393 32.0095C106.657 31.9222 106.918 31.8581 107.176 31.8174C107.434 31.7767 107.676 31.7563 107.899 31.7563C108.41 31.7563 108.895 31.8349 109.355 31.992C109.814 32.1491 110.227 32.411 110.594 32.7777C110.784 32.964 110.933 33.188 111.042 33.4499C111.151 33.7118 111.234 33.9883 111.292 34.2793C111.355 34.5703 111.395 34.8642 111.412 35.1611C111.43 35.4579 111.438 35.7314 111.438 35.9817C111.438 36.3251 111.421 36.6714 111.387 37.0206C111.358 37.364 111.321 37.7074 111.275 38.0507C111.234 38.3941 111.189 38.7375 111.137 39.0809C111.091 39.4243 111.051 39.7677 111.016 40.1111L109.466 40.5388ZM109.415 38.6619C109.392 38.3126 109.36 37.9518 109.32 37.5793C109.28 37.2068 109.222 36.8431 109.148 36.488C108.867 36.523 108.551 36.5783 108.201 36.6539C107.856 36.7296 107.529 36.8314 107.219 36.9595C106.915 37.0875 106.657 37.2447 106.444 37.4309C106.238 37.6171 106.134 37.8325 106.134 38.0769C106.134 38.2632 106.189 38.4116 106.298 38.5222C106.407 38.6269 106.539 38.7084 106.694 38.7666C106.849 38.819 107.013 38.8539 107.185 38.8714C107.363 38.883 107.521 38.8888 107.658 38.8888C107.951 38.8888 108.244 38.8685 108.537 38.8277C108.835 38.787 109.128 38.7317 109.415 38.6619Z" fill="#3A200B"/>
<path d="M98.3899 39.6834C98.2521 39.8289 98.0799 39.9424 97.8732 40.0239C97.6666 40.0995 97.4456 40.1577 97.2103 40.1985C96.9806 40.2392 96.751 40.2654 96.5214 40.277C96.2918 40.2829 96.0823 40.2858 95.8929 40.2858H95.6604V27.4H97.9249V27.3913C98.0282 27.3855 98.1287 27.3826 98.2263 27.3826C98.3296 27.3768 98.4329 27.3738 98.5362 27.3738C99.2136 27.3738 99.8536 27.4408 100.456 27.5746C101.059 27.7027 101.584 27.9238 102.032 28.2381C102.485 28.5466 102.841 28.9598 103.1 29.4778C103.364 29.9958 103.496 30.6447 103.496 31.4246C103.496 32.2395 103.318 32.967 102.962 33.6072C102.606 34.2474 102.075 34.7683 101.369 35.1699C100.939 35.4143 100.479 35.586 99.9914 35.685C99.5092 35.7839 99.0242 35.8392 98.5362 35.8508V35.8596C98.5075 35.8596 98.4817 35.8596 98.4587 35.8596C98.4415 35.8537 98.4186 35.8508 98.3899 35.8508V39.6834ZM98.3899 34.5762C98.763 34.5238 99.0959 34.3987 99.3887 34.2008C99.6814 33.9971 99.9282 33.7469 100.129 33.45C100.33 33.1532 100.482 32.8244 100.585 32.4635C100.695 32.1027 100.749 31.7389 100.749 31.3723C100.749 30.9707 100.695 30.5982 100.585 30.2548C100.482 29.9114 100.327 29.6088 100.121 29.3469C99.9196 29.085 99.6728 28.8696 99.38 28.7008C99.093 28.532 98.763 28.4215 98.3899 28.3691V34.5762Z" fill="#3A200B"/>
<path d="M86.5861 31.5295C86.6665 32.1348 86.7181 32.743 86.7411 33.3541C86.7698 33.9594 86.7842 34.5676 86.7842 35.1787C86.7842 35.6909 86.7669 36.1972 86.7325 36.6977C86.7038 37.1925 86.6493 37.693 86.5689 38.1993C86.5345 38.4205 86.4799 38.6096 86.4053 38.7668C86.3307 38.9239 86.2101 39.0811 86.0437 39.2382C85.7796 39.4827 85.4668 39.6718 85.1051 39.8057C84.7493 39.9337 84.3876 40.0181 84.0202 40.0589C83.8251 40.1054 83.627 40.1432 83.4261 40.1723C83.231 40.2014 83.0301 40.216 82.8234 40.216C82.4216 40.216 82.0686 40.1345 81.7644 39.9716C81.4659 39.8028 81.1932 39.5787 80.9464 39.2993C80.7971 39.4332 80.6421 39.5612 80.4814 39.6835C80.3207 39.7999 80.1514 39.9046 79.9734 39.9977C79.8012 40.085 79.6175 40.1549 79.4224 40.2073C79.2329 40.2597 79.0349 40.2858 78.8282 40.2858C78.3059 40.2858 77.8352 40.1869 77.4162 39.989C77.0029 39.7853 76.6584 39.4536 76.3829 38.9938C76.337 38.6969 76.314 38.3914 76.314 38.0771C76.314 37.7628 76.3083 37.4544 76.2968 37.1517C76.2681 36.2263 76.2452 35.3067 76.2279 34.393C76.2107 33.4792 76.1935 32.5596 76.1763 31.6342L78.768 31.7128L78.9746 37.8414C78.9804 37.9403 79.0033 38.0509 79.0435 38.1731C79.0894 38.2895 79.1468 38.4001 79.2157 38.5049C79.2903 38.6038 79.3764 38.6882 79.474 38.7581C79.5716 38.8279 79.6749 38.8628 79.784 38.8628C79.9045 38.8628 80.0251 38.8395 80.1456 38.793C80.2719 38.7464 80.3896 38.6911 80.4986 38.6271L80.4211 31.7652H82.6684L82.7459 38.0858C82.8091 38.1964 82.8866 38.2895 82.9784 38.3652C83.0702 38.435 83.1707 38.4932 83.2798 38.5398C83.3946 38.5864 83.5151 38.6213 83.6414 38.6446C83.7677 38.662 83.894 38.6737 84.0202 38.6795C84.0949 38.2779 84.1494 37.8472 84.1838 37.3874C84.224 36.9276 84.2499 36.4737 84.2613 36.0255C84.2786 35.5715 84.2872 35.1438 84.2872 34.7422C84.2872 34.3348 84.2872 33.9856 84.2872 33.6946C84.2872 33.3279 84.2843 32.967 84.2786 32.612C84.2728 32.257 84.2642 31.8961 84.2527 31.5295H86.5861Z" fill="#3A200B"/>
<path d="M70.7738 40.2422C70.4811 40.2422 70.1855 40.2364 69.887 40.2248C69.5942 40.2131 69.3043 40.1753 69.0173 40.1113C68.8107 40.0647 68.6155 39.9978 68.4318 39.9105C68.2481 39.8232 68.0817 39.7039 67.9324 39.5525C67.7315 39.3547 67.5737 39.1044 67.4589 38.8017C67.3498 38.4933 67.2666 38.1674 67.2092 37.824C67.1518 37.4806 67.1173 37.1401 67.1058 36.8025C67.0944 36.4591 67.0886 36.1536 67.0886 35.8859C67.0886 35.6356 67.0915 35.3708 67.0972 35.0914C67.103 34.8121 67.1231 34.5356 67.1575 34.2621C67.1977 33.9827 67.2551 33.715 67.3297 33.4589C67.4101 33.2028 67.522 32.9729 67.6655 32.7692C67.809 32.5597 67.987 32.3851 68.1994 32.2454C68.4175 32.0999 68.6844 32.0068 69.0001 31.966C69.3273 31.9195 69.6516 31.8962 69.9731 31.8962C70.3003 31.8962 70.6275 31.8962 70.9546 31.8962C71.2302 31.8962 71.5086 31.8991 71.7898 31.9049C72.0711 31.9049 72.3495 31.9282 72.625 31.9748C72.9982 32.0271 73.3225 32.1726 73.598 32.4113C73.7932 32.58 73.9453 32.8128 74.0544 33.1097C74.1634 33.4007 74.2438 33.7121 74.2954 34.0438C74.3471 34.3755 74.3787 34.7044 74.3902 35.0303C74.4016 35.3562 74.4074 35.6414 74.4074 35.8859C74.4074 36.1478 74.4016 36.4504 74.3902 36.7938C74.3787 37.1372 74.3471 37.4835 74.2954 37.8327C74.2438 38.1761 74.1634 38.5049 74.0544 38.8192C73.9453 39.1277 73.7932 39.3808 73.598 39.5787C73.4488 39.7301 73.2852 39.8494 73.1072 39.9367C72.9293 40.0181 72.7398 40.0793 72.5389 40.12C72.2462 40.1782 71.9506 40.2131 71.6521 40.2248C71.3593 40.2364 71.0666 40.2422 70.7738 40.2422ZM70.7652 33.4327C70.5988 33.4327 70.4495 33.4792 70.3175 33.5724C70.1912 33.6655 70.0821 33.7877 69.9903 33.939C69.8985 34.0904 69.821 34.2621 69.7578 34.4541C69.6947 34.6404 69.643 34.8295 69.6028 35.0216C69.5684 35.2078 69.5426 35.3912 69.5253 35.5716C69.5139 35.7462 69.5081 35.8946 69.5081 36.0168C69.5081 36.139 69.5139 36.2904 69.5253 36.4708C69.5426 36.6454 69.5684 36.8287 69.6028 37.0208C69.643 37.207 69.6947 37.3962 69.7578 37.5883C69.821 37.7745 69.8985 37.9433 69.9903 38.0946C70.0821 38.2459 70.1912 38.3681 70.3175 38.4613C70.4495 38.5544 70.5988 38.6009 70.7652 38.6009C70.9317 38.6009 71.0781 38.5544 71.2043 38.4613C71.3364 38.3681 71.4483 38.2459 71.5401 38.0946C71.632 37.9433 71.7095 37.7745 71.7726 37.5883C71.8358 37.3962 71.8846 37.207 71.919 37.0208C71.9592 36.8287 71.985 36.6454 71.9965 36.4708C72.0137 36.2904 72.0223 36.139 72.0223 36.0168C72.0223 35.8946 72.0137 35.7462 71.9965 35.5716C71.985 35.3912 71.9592 35.2078 71.919 35.0216C71.8846 34.8295 71.8358 34.6404 71.7726 34.4541C71.7095 34.2621 71.632 34.0904 71.5401 33.939C71.4483 33.7877 71.3364 33.6655 71.2043 33.5724C71.0781 33.4792 70.9317 33.4327 70.7652 33.4327Z" fill="#3A200B"/>
<path d="M58.2075 36.5667C58.2075 36.2757 58.2133 35.9876 58.2247 35.7024C58.2362 35.4114 58.2649 35.1233 58.3108 34.8381C58.3912 34.3201 58.5519 33.9011 58.793 33.581C59.0398 33.2551 59.3383 33.0048 59.6885 32.8302C60.0386 32.6498 60.4261 32.5275 60.8509 32.4635C61.2757 32.3995 61.7119 32.3675 62.1596 32.3675C62.705 32.3675 63.1929 32.4402 63.6234 32.5857C64.0597 32.7312 64.427 32.9466 64.7255 33.2318C65.0297 33.517 65.2594 33.8749 65.4143 34.3056C65.5751 34.7305 65.6554 35.2281 65.6554 35.7984C65.6554 35.9614 65.6468 36.1244 65.6296 36.2873C65.6124 36.4445 65.5923 36.6045 65.5693 36.7675L60.3687 36.6977C60.3859 36.9537 60.4232 37.1924 60.4806 37.4135C60.538 37.6289 60.627 37.818 60.7476 37.981C60.8738 38.144 61.0317 38.272 61.2211 38.3651C61.4163 38.4524 61.6545 38.4961 61.9358 38.4961C62.1195 38.4961 62.3232 38.4728 62.5471 38.4262C62.771 38.3738 62.9977 38.3098 63.2273 38.2342C63.4569 38.1585 63.6808 38.0799 63.8989 37.9985C64.1171 37.9111 64.3094 37.8297 64.4758 37.754L65.1044 38.6969C65.0527 39.0635 64.9408 39.372 64.7686 39.6223C64.5964 39.8667 64.384 40.0646 64.1314 40.2159C63.8846 40.3614 63.6062 40.4662 63.2962 40.5302C62.9862 40.5884 62.6648 40.6175 62.3319 40.6175C61.7062 40.6175 61.1379 40.5302 60.627 40.3556C60.1161 40.1752 59.6828 39.9133 59.3269 39.5699C58.971 39.2207 58.6954 38.7958 58.5003 38.2953C58.3051 37.7889 58.2075 37.2127 58.2075 36.5667ZM63.5459 35.7723C63.5574 35.6966 63.566 35.6238 63.5717 35.554C63.5832 35.4842 63.589 35.4114 63.589 35.3358C63.589 35.0913 63.5488 34.8527 63.4684 34.6199C63.388 34.3871 63.2732 34.1834 63.124 34.0088C62.9748 33.8283 62.7968 33.6857 62.5902 33.581C62.3835 33.4704 62.151 33.4151 61.8927 33.4151C61.5942 33.4151 61.3474 33.4908 61.1522 33.6421C60.9571 33.7876 60.8021 33.9738 60.6873 34.2008C60.5725 34.422 60.4921 34.6693 60.4462 34.9429C60.4003 35.2106 60.3773 35.4667 60.3773 35.7111L63.5459 35.7723Z" fill="#3A200B"/>
<path d="M53.8557 40.277V32.4722L52.745 38.3389H51.4448L50.1877 32.3064V40.277H47.5874V28.1683H50.1102L52.0906 35.5278L53.9504 28.1683H56.4646V40.277H53.8557Z" fill="#3A200B"/>
<path d="M22.7897 37.9747C24.5687 37.5984 25.9075 35.9611 25.9075 33.9984C25.9075 31.7574 24.1622 29.9407 22.0092 29.9407H18.0606M22.7897 37.9747C22.5375 38.028 22.2765 38.056 22.0092 38.056H21.4285V39.9989C22.0921 39.8694 23.5437 39.8435 24.0414 40.7759C24.5391 41.7084 24.5529 42.4596 24.4976 42.7186H11.2738M22.7897 37.9747L25.2856 38.7038C25.8165 38.9455 27.6238 41.6681 28.4533 42.7186C28.4533 42.7186 30.4036 42.7186 31.556 42.7186C31.7333 40.194 30.2491 40.1942 29.3091 39.302L29.5309 25.0117C29.5309 23.1447 29.5309 23.0658 29.5309 22.6059C29.5309 22.1461 28.683 17.7688 28.4533 17.4763C27.783 12.6664 31.8878 15.3028 31.756 12.2408C32.3383 11.5518 30.3136 8.50026 29.3091 7.3626C29.6829 6.40289 29.0213 2.72099 28.6438 1L25.0886 4.77451C25.0715 4.77427 25.0544 4.77415 25.0373 4.77415C24.4413 4.77415 23.8563 4.85847 23.2966 5.01663C23.1561 3.43701 22.7019 0.485463 22.0092 1.31618C21.3165 2.14689 19.7112 6.72208 18.9951 8.90584C18.7457 9.56592 18.6079 10.2809 18.6079 11.032C18.6079 12.8739 18.2236 15.1923 18.9062 16.988H18.8572C11.8938 16.988 6.24885 22.558 6.24885 29.4289C6.24885 32.9595 8.87982 37.2569 11.2738 39.5213V42.7186M11.2738 42.7186C7.65514 42.6328 2.65829 42.2925 1.30588 33.9984C0.224343 27.3655 1.95294 24.525 7.4187 18.8358C9.92899 16.2229 12.1797 12.3638 8.81812 8.90584" stroke="#3A200B" stroke-width="2" stroke-linecap="round" stroke-linejoin="round"/>
</svg>
