<svg width="141" height="45" viewBox="0 0 141 45" fill="none" xmlns="http://www.w3.org/2000/svg">
<path d="M123.521 1.98945C123.567 2.7189 123.613 3.44836 123.659 4.17781C123.705 4.90727 123.728 5.6406 123.728 6.37781V6.8085H124.807L124.727 1.91961L126.632 2.02437C126.686 2.74606 126.736 3.46388 126.782 4.17781C126.828 4.89175 126.85 5.61344 126.85 6.34289C126.85 6.38169 126.85 6.44378 126.85 6.52914C126.85 6.6145 126.847 6.70762 126.839 6.8085H129.56C129.575 7.14219 129.587 7.472 129.594 7.79792C129.61 8.12385 129.617 8.45365 129.617 8.78734C129.617 8.8727 129.617 8.95806 129.617 9.04343C129.617 9.12879 129.61 9.21415 129.594 9.29951H118.906C118.822 9.29951 118.757 9.22967 118.711 9.08999C118.665 8.9503 118.631 8.79122 118.608 8.61274C118.592 8.42649 118.585 8.24801 118.585 8.07729C118.585 7.8988 118.585 7.77464 118.585 7.7048C118.585 7.55736 118.585 7.40991 118.585 7.26247C118.592 7.11503 118.596 6.96371 118.596 6.8085H121.684L121.604 1.87305L123.521 1.98945ZM130.168 3.7122C130.084 4.01485 129.992 4.29421 129.893 4.5503C129.801 4.79862 129.678 5.01591 129.525 5.20215C129.372 5.3884 129.181 5.53584 128.951 5.64448C128.722 5.74536 128.435 5.7958 128.09 5.7958C127.891 5.7958 127.715 5.7764 127.562 5.7376C127.409 5.6988 127.245 5.6406 127.069 5.563L128.32 2.92067L130.168 3.7122ZM120.49 3.00215C120.705 3.23495 120.888 3.48716 121.041 3.75876C121.202 4.03037 121.282 4.33301 121.282 4.6667C121.282 5.05471 121.183 5.38063 120.984 5.64448C120.793 5.90057 120.529 6.10621 120.192 6.26141L118.332 4.27093L120.49 3.00215ZM135.312 3.60744C135.472 3.59968 135.633 3.5958 135.794 3.5958C135.954 3.58804 136.119 3.58416 136.287 3.58416C136.395 3.58416 136.528 3.58804 136.689 3.5958C136.858 3.5958 137.026 3.60356 137.194 3.61908C137.37 3.6346 137.531 3.66176 137.677 3.70056C137.83 3.73936 137.944 3.79368 138.021 3.86353C138.052 3.89457 138.082 4.00709 138.113 4.20109C138.143 4.3951 138.17 4.65506 138.193 4.98099C138.216 5.29915 138.239 5.67164 138.262 6.09845C138.285 6.52526 138.304 6.98311 138.319 7.472L140.925 7.40215C140.941 7.76688 140.956 8.13161 140.971 8.49634C140.987 8.8533 140.994 9.21803 140.994 9.59052C140.994 9.62156 140.994 9.6526 140.994 9.68364C141.002 9.70692 141.002 9.73408 140.994 9.76512C140.994 9.81168 140.945 9.85436 140.845 9.89316C140.746 9.9242 140.619 9.95136 140.466 9.97464C140.321 9.99792 140.16 10.0173 139.984 10.0328C139.808 10.0484 139.64 10.0639 139.479 10.0794C139.318 10.0872 139.177 10.0949 139.054 10.1027C138.939 10.1027 138.863 10.1027 138.825 10.1027C138.748 10.1104 138.675 10.1182 138.606 10.126C138.538 10.126 138.465 10.126 138.388 10.126C138.404 10.7701 138.415 11.4025 138.423 12.0233C138.438 12.6441 138.45 13.2145 138.457 13.7344C138.465 14.2466 138.469 14.6889 138.469 15.0614C138.476 15.4261 138.48 15.6861 138.48 15.8413C138.48 15.9965 138.48 16.2642 138.48 16.6445C138.48 17.017 138.476 17.4438 138.469 17.9249C138.461 18.406 138.45 18.9105 138.434 19.4381C138.419 19.9581 138.396 20.4431 138.365 20.8932C138.342 21.3355 138.308 21.708 138.262 22.0106C138.224 22.321 138.17 22.5034 138.101 22.5577C137.795 22.7983 137.466 22.9845 137.114 23.1165C136.77 23.2561 136.402 23.326 136.012 23.326C135.66 23.326 135.331 23.2717 135.025 23.163C134.726 23.0544 134.447 22.9108 134.186 22.7323C133.926 22.5538 133.681 22.3443 133.452 22.1038C133.222 21.8632 133.004 21.6149 132.797 21.3588L135.415 20.381C135.415 18.6738 135.403 16.9782 135.38 15.2942C135.365 13.6025 135.35 11.903 135.334 10.1958H134.646C134.569 10.1958 134.435 10.1958 134.244 10.1958C134.06 10.1958 133.85 10.1958 133.612 10.1958C133.383 10.1958 133.134 10.1958 132.866 10.1958C132.606 10.1958 132.361 10.1919 132.131 10.1842C131.91 10.1764 131.711 10.1686 131.534 10.1609C131.366 10.1454 131.255 10.1298 131.202 10.1143C131.056 10.0678 130.941 9.93972 130.857 9.7302C130.781 9.51292 130.723 9.27235 130.685 9.00851C130.647 8.74466 130.62 8.48857 130.605 8.24025C130.597 7.98417 130.589 7.79404 130.582 7.66988L135.312 7.54184C135.304 7.05295 135.3 6.56406 135.3 6.07517C135.3 5.57852 135.3 5.08187 135.3 4.58522C135.3 4.42226 135.3 4.25929 135.3 4.09633C135.3 3.93337 135.304 3.7704 135.312 3.60744ZM122.109 9.53232C122.262 9.61768 122.404 9.70692 122.534 9.80004C122.664 9.8854 122.779 9.9824 122.878 10.091C122.985 10.1997 123.066 10.3277 123.119 10.4752C123.181 10.6149 123.211 10.7778 123.211 10.9641C123.211 11.2357 123.15 11.4568 123.028 11.6276C122.905 11.7983 122.752 11.9651 122.568 12.1281L120.525 11.1154L122.109 9.53232ZM127.425 10.3006C127.379 10.8593 127.187 11.2822 126.85 11.5694C126.514 11.8565 126.07 12 125.519 12C125.358 12 125.228 11.9884 125.128 11.9651C125.037 11.9418 124.914 11.8992 124.761 11.8371L125.611 9.63708L127.425 10.3006ZM131.867 11.8604C132.051 12.0311 132.273 12.2445 132.533 12.5006C132.801 12.7489 133.058 13.0205 133.302 13.3154C133.547 13.6025 133.754 13.8974 133.922 14.2C134.098 14.4949 134.186 14.7782 134.186 15.0498C134.186 15.2593 134.144 15.4572 134.06 15.6434C133.976 15.8297 133.865 16.0043 133.727 16.1672C133.597 16.3224 133.448 16.466 133.28 16.5979C133.111 16.7221 132.947 16.8307 132.786 16.9239L129.973 14.0371L131.867 11.8604ZM119.101 20.218L122.867 19.8456L122.832 18.0646L119.962 18.181L119.893 15.9926L122.786 15.9228L122.763 14.6773L119.56 14.8053L119.492 12.6053L128.308 12.3958L128.469 14.4445L125.278 14.5725C125.293 14.7898 125.308 15.0032 125.324 15.2127C125.347 15.4223 125.366 15.6357 125.381 15.853L128.056 15.7831L128.217 17.8318L125.496 17.9482C125.503 18.0568 125.507 18.1694 125.507 18.2858C125.507 18.3944 125.507 18.503 125.507 18.6117C125.507 18.6505 125.507 18.7165 125.507 18.8096C125.507 18.8949 125.503 18.9881 125.496 19.0889C125.488 19.1898 125.477 19.2868 125.461 19.3799C125.446 19.4731 125.423 19.5429 125.392 19.5895L128.974 19.2403L128.986 19.5196C128.986 19.9154 128.913 20.2995 128.768 20.672C128.63 21.0367 128.4 21.3394 128.079 21.5799C127.933 21.6886 127.669 21.7934 127.287 21.8942C126.904 21.9951 126.456 22.0882 125.944 22.1736C125.438 22.259 124.899 22.3327 124.325 22.3948C123.751 22.4646 123.2 22.5228 122.672 22.5694C122.144 22.6159 121.665 22.6509 121.237 22.6741C120.808 22.6974 120.487 22.7091 120.272 22.7091C120.257 22.7091 120.242 22.7091 120.226 22.7091C120.211 22.7168 120.196 22.7168 120.18 22.7091C120.142 22.7013 120.089 22.6353 120.02 22.5112C119.958 22.387 119.886 22.2318 119.802 22.0456C119.725 21.8671 119.645 21.6731 119.56 21.4635C119.484 21.254 119.411 21.06 119.342 20.8815C119.273 20.7031 119.216 20.5517 119.17 20.4276C119.124 20.2956 119.101 20.2258 119.101 20.218Z" fill="#FFBC46"/>
<path d="M109.395 2.30396C109.48 2.44364 109.571 2.60272 109.671 2.7812C109.778 2.95969 109.874 3.14593 109.958 3.33994C110.05 3.52618 110.126 3.7163 110.187 3.91031C110.249 4.09655 110.279 4.27115 110.279 4.43412C110.279 4.4574 110.275 4.48068 110.268 4.50396C110.268 4.51948 110.268 4.535 110.268 4.55052C110.253 4.66692 110.157 4.80272 109.981 4.95793C109.805 5.11313 109.571 5.27997 109.281 5.45846C108.997 5.62918 108.668 5.80378 108.293 5.98227C107.926 6.16075 107.543 6.33535 107.145 6.50608C106.747 6.6768 106.345 6.83588 105.94 6.98333C105.542 7.13077 105.167 7.26269 104.815 7.37909C104.47 7.48774 104.16 7.57698 103.885 7.64682C103.609 7.7089 103.403 7.73994 103.265 7.73994C102.982 7.73994 102.695 7.65458 102.404 7.48386C102.121 7.30537 101.849 7.09197 101.589 6.84364C101.336 6.59532 101.099 6.33147 100.877 6.05211C100.663 5.76498 100.475 5.51666 100.314 5.30713L109.395 2.30396ZM95.7796 4.81824C96.0015 4.88033 96.2426 4.95793 96.5028 5.05105C96.7707 5.13641 97.0156 5.24893 97.2376 5.38862C97.4672 5.5283 97.6585 5.69902 97.8116 5.90078C97.9647 6.10255 98.0412 6.34699 98.0412 6.63412C98.0412 6.98333 97.9685 7.28597 97.8231 7.54206C97.6853 7.79038 97.4901 8.02319 97.2376 8.24047L94.5626 7.07645L95.7796 4.81824ZM100.073 7.15793C100.188 7.18121 100.364 7.22389 100.601 7.28597C100.846 7.34029 101.095 7.40625 101.348 7.48386C101.6 7.56146 101.83 7.6507 102.036 7.75158C102.251 7.8447 102.381 7.94558 102.427 8.05423C102.457 8.12407 102.484 8.29091 102.507 8.55476C102.538 8.81084 102.564 9.12513 102.587 9.49761C102.618 9.86234 102.641 10.2542 102.656 10.6733C102.679 11.0923 102.698 11.4959 102.714 11.8839C102.737 12.2641 102.752 12.6056 102.76 12.9082C102.767 13.2108 102.771 13.4243 102.771 13.5484C102.771 13.8123 102.767 14.1459 102.76 14.5495C102.752 14.953 102.733 15.3953 102.702 15.8765C102.679 16.3576 102.637 16.862 102.576 17.3897C102.522 17.9174 102.442 18.4373 102.335 18.9495C102.235 19.4616 102.109 19.9505 101.956 20.4161C101.803 20.874 101.615 21.2814 101.393 21.6384C101.179 21.9876 100.923 22.2631 100.624 22.4648C100.333 22.6744 99.9967 22.7791 99.614 22.7791C99.3844 22.7791 99.1701 22.7403 98.9711 22.6627C98.7721 22.5929 98.5731 22.5075 98.3741 22.4066C98.5655 22.0962 98.7339 21.6849 98.8793 21.1728C99.0247 20.6528 99.151 20.0708 99.2581 19.4267C99.3729 18.7749 99.4686 18.0765 99.5451 17.3315C99.6293 16.5865 99.6982 15.826 99.7518 15.05C99.813 14.274 99.8628 13.5057 99.901 12.7452C99.9393 11.977 99.9699 11.2475 99.9929 10.5569C100.016 9.85846 100.031 9.21825 100.039 8.63624C100.054 8.05423 100.066 7.56146 100.073 7.15793ZM110.624 7.18121L111.76 9.34629C111.362 9.58686 110.934 9.82742 110.474 10.068C110.023 10.3086 109.556 10.5297 109.074 10.7315C108.592 10.9255 108.106 11.0923 107.616 11.232C107.126 11.3639 106.64 11.4415 106.158 11.4648V13.8976C106.158 14.014 106.158 14.2391 106.158 14.5728C106.158 14.8987 106.162 15.275 106.169 15.7019C106.177 16.1209 106.188 16.5632 106.204 17.0288C106.219 17.4945 106.242 17.929 106.273 18.3325C106.303 18.7283 106.342 19.0659 106.387 19.3452C106.433 19.6246 106.491 19.7876 106.56 19.8341C106.621 19.8729 106.682 19.9001 106.743 19.9156C106.812 19.9234 106.881 19.9273 106.95 19.9273C107.134 19.9273 107.344 19.9001 107.581 19.8458C107.826 19.7915 108.071 19.7255 108.316 19.6479C108.561 19.5703 108.802 19.4888 109.039 19.4034C109.277 19.3181 109.48 19.2444 109.648 19.1823C109.303 18.7089 108.959 18.2161 108.615 17.704C108.27 17.184 107.953 16.6913 107.662 16.2257C107.371 15.7601 107.115 15.3449 106.893 14.9802C106.678 14.6154 106.518 14.3477 106.41 14.177C106.418 14.1692 106.468 14.1265 106.56 14.0489C106.652 13.9636 106.766 13.8588 106.904 13.7347C107.049 13.6027 107.203 13.4631 107.363 13.3156C107.524 13.1682 107.673 13.0285 107.811 12.8966C107.949 12.7646 108.064 12.6521 108.155 12.559C108.255 12.4659 108.309 12.4116 108.316 12.396L109.062 13.4087L110.497 11.395L112.3 12.8384C112.162 13.0324 112.021 13.238 111.875 13.4553C111.73 13.6648 111.577 13.8705 111.416 14.0722C111.255 14.274 111.079 14.4641 110.888 14.6426C110.704 14.8133 110.505 14.9569 110.291 15.0733L114.114 20.2532C113.869 20.5946 113.586 20.8701 113.264 21.0796C112.95 21.2814 112.591 21.4327 112.185 21.5336C112.162 21.5414 112.131 21.5452 112.093 21.5452C111.955 21.5452 111.795 21.487 111.611 21.3706C111.435 21.2465 111.244 21.0796 111.037 20.8701C110.83 20.6528 110.608 20.4045 110.371 20.1251C110.142 19.838 109.908 19.5315 109.671 19.2056C109.61 19.9117 109.441 20.5015 109.166 20.9749C108.898 21.4482 108.55 21.8246 108.121 22.104C107.692 22.3911 107.199 22.5929 106.64 22.7093C106.081 22.8257 105.484 22.8839 104.849 22.8839C104.65 22.8839 104.447 22.8761 104.241 22.8606C104.042 22.8451 103.843 22.8296 103.644 22.814L103.69 10.813C103.36 10.5724 103.07 10.2736 102.817 9.91666L110.624 7.18121ZM93.2309 10.3241L93.7246 10.3124C94.0384 10.3124 94.3369 10.3396 94.62 10.3939C94.9109 10.4482 95.1673 10.5452 95.3892 10.6849C95.6112 10.8168 95.7872 11.0031 95.9173 11.2436C96.0551 11.4765 96.124 11.7752 96.124 12.1399C96.124 12.4969 96.0589 12.8112 95.9288 13.0828C95.7987 13.3467 95.6227 13.6105 95.4007 13.8743L92.3354 12.8384L93.2309 10.3241ZM93.2309 19.1474L97.5705 17.5061C97.6317 17.6846 97.6777 17.8592 97.7083 18.0299C97.7389 18.1929 97.7542 18.3675 97.7542 18.5537C97.7542 18.965 97.6853 19.3491 97.5475 19.7061C97.4098 20.0553 97.2184 20.3618 96.9735 20.6257C96.7286 20.8818 96.434 21.0835 96.0895 21.231C95.7451 21.3784 95.3663 21.4521 94.953 21.4521C94.8841 21.4521 94.8152 21.4521 94.7463 21.4521C94.6775 21.4444 94.6086 21.4405 94.5397 21.4405L93.2309 19.1474Z" fill="#FFBC46"/>
<path d="M74.2031 5.12069H76.5566L76.5911 2.87413H79.4956L79.5071 3.74714C79.5071 3.94891 79.5033 4.16619 79.4956 4.399C79.488 4.6318 79.4765 4.87237 79.4612 5.12069H82.1017L82.469 2.78101C82.4767 2.78101 82.5303 2.78489 82.6298 2.79265C82.7369 2.80041 82.8632 2.81593 83.0086 2.83921C83.154 2.85473 83.3109 2.87413 83.4793 2.89741C83.6477 2.91293 83.8084 2.93233 83.9615 2.95561C84.1146 2.97889 84.2447 3.00217 84.3518 3.02545C84.459 3.04873 84.5202 3.07201 84.5355 3.09529C84.5661 3.12633 84.5929 3.23885 84.6159 3.43286C84.6465 3.62686 84.6694 3.83639 84.6847 4.06143C84.7077 4.28648 84.7268 4.50376 84.7421 4.71328C84.7575 4.91505 84.7651 5.05085 84.7651 5.12069H87.5663C87.5893 5.4311 87.6122 5.7415 87.6352 6.05191C87.6582 6.36232 87.6697 6.67272 87.6697 6.98313C87.6697 7.02193 87.6697 7.06073 87.6697 7.09953C87.6697 7.13057 87.6658 7.16549 87.6582 7.20429C87.6505 7.23533 87.6199 7.25861 87.5663 7.27413C87.5128 7.28189 87.4783 7.28965 87.463 7.29741C87.0574 7.39054 86.6249 7.4371 86.1657 7.4371C85.7065 7.4371 85.2702 7.44098 84.857 7.44874H84.5814C84.5278 7.72034 84.459 7.95703 84.3748 8.15879C84.2906 8.35279 84.1834 8.52352 84.0533 8.67096C83.9309 8.8184 83.774 8.94257 83.5826 9.04345C83.3989 9.13657 83.177 9.21805 82.9168 9.28789C82.8096 9.31893 82.6986 9.34609 82.5838 9.36937C82.4767 9.38489 82.3657 9.39265 82.2509 9.39265C82.1055 9.39265 81.9677 9.37713 81.8376 9.34609C81.7152 9.31505 81.585 9.27625 81.4473 9.22969L81.7343 7.46038C81.2827 7.45262 80.835 7.44874 80.3911 7.44874C79.9548 7.44098 79.5109 7.42934 79.0594 7.41382C78.9292 7.84838 78.7532 8.24803 78.5313 8.61276C78.317 8.97749 78.0414 9.27237 77.7047 9.49742C77.5746 9.59054 77.4444 9.66814 77.3143 9.73022C77.1842 9.78454 77.0388 9.8117 76.8781 9.8117C76.8092 9.8117 76.7403 9.80394 76.6714 9.78842C76.6102 9.76514 76.549 9.74186 76.4877 9.71858L76.5222 7.35561C76.461 7.35561 76.4036 7.35561 76.35 7.35561C76.2964 7.34785 76.239 7.34397 76.1778 7.34397C76.0017 7.33621 75.8066 7.33233 75.5923 7.33233C75.3856 7.33233 75.1943 7.31293 75.0183 7.27413C74.8346 7.22757 74.693 7.11893 74.5935 6.94821C74.494 6.76972 74.4174 6.57184 74.3639 6.35456C74.3103 6.12951 74.272 5.90447 74.2491 5.67942C74.2338 5.45438 74.2185 5.26813 74.2031 5.12069ZM65.9258 4.91117L68.7844 5.09741C68.7844 5.19829 68.7844 5.29529 68.7844 5.38842C68.7844 5.48154 68.7882 5.57854 68.7959 5.67942L73.2388 5.43498C73.2388 5.50482 73.2388 5.66778 73.2388 5.92387C73.2388 6.17995 73.235 6.49424 73.2273 6.86673C73.2273 7.23145 73.2235 7.63886 73.2158 8.08895C73.2082 8.53904 73.1967 8.99689 73.1814 9.4625C73.1737 9.9281 73.1623 10.386 73.147 10.836C73.1316 11.2784 73.1087 11.6819 73.0781 12.0466C73.0551 12.4036 73.0245 12.7024 72.9862 12.9429C72.948 13.1757 72.9059 13.3154 72.8599 13.362C72.7834 13.4318 72.6686 13.49 72.5155 13.5366C72.3701 13.5754 72.2094 13.6064 72.0334 13.6297C71.865 13.653 71.6966 13.6685 71.5282 13.6763C71.3598 13.6763 71.2221 13.6763 71.1149 13.6763C70.9848 13.6763 70.8547 13.6763 70.7246 13.6763C70.5945 13.6685 70.4644 13.6646 70.3343 13.6646C70.3419 13.5482 70.3457 13.4318 70.3457 13.3154C70.3457 13.199 70.3496 13.0826 70.3572 12.9662L68.8533 12.9546V13.362C68.8533 13.4085 68.7921 13.4473 68.6696 13.4784C68.5548 13.5017 68.4209 13.5211 68.2678 13.5366C68.1224 13.5443 67.9808 13.5482 67.843 13.5482C67.7129 13.5482 67.6287 13.5482 67.5904 13.5482C67.5445 13.5482 67.445 13.5482 67.2919 13.5482C67.1389 13.5405 66.9743 13.5366 66.7983 13.5366C66.6299 13.5288 66.4768 13.5249 66.3391 13.5249C66.2013 13.5172 66.1248 13.5094 66.1095 13.5017C66.1018 13.4939 66.0942 13.4784 66.0865 13.4551C66.0865 13.4241 66.0865 13.4047 66.0865 13.3969C66.0482 13.102 66.0291 12.8032 66.0291 12.5006C66.0291 12.1902 66.0253 11.8875 66.0176 11.5927C65.987 10.4752 65.9679 9.36161 65.9602 8.25191C65.9526 7.14221 65.9411 6.02863 65.9258 4.91117ZM70.4146 10.9757C70.4223 10.7196 70.4261 10.4636 70.4261 10.2075C70.4338 9.94363 70.4376 9.67978 70.4376 9.41594C70.4376 9.30729 70.4376 9.15597 70.4376 8.96197C70.4376 8.7602 70.4338 8.55456 70.4261 8.34503C70.4184 8.12775 70.407 7.92599 70.3917 7.73974C70.3763 7.54574 70.3534 7.3983 70.3228 7.29741C70.2922 7.18877 70.2271 7.10341 70.1276 7.04133C70.0281 6.97925 69.9171 6.93269 69.7947 6.90165C69.6722 6.87061 69.5459 6.85508 69.4158 6.85508C69.2857 6.84732 69.1747 6.84344 69.0829 6.84344C69.037 6.84344 68.991 6.84344 68.9451 6.84344C68.8992 6.84344 68.8533 6.84732 68.8074 6.85508C68.815 7.5535 68.8188 8.24415 68.8188 8.92705C68.8265 9.60994 68.8341 10.3006 68.8418 10.999L70.4146 10.9757ZM75.0183 10.3239L77.8424 10.58V10.5916L86.9923 10.3821C86.9923 10.483 86.9923 10.7196 86.9923 11.0921C86.9923 11.4569 86.9885 11.9069 86.9808 12.4424C86.9808 12.9701 86.977 13.5599 86.9693 14.2117C86.9617 14.8558 86.9502 15.5154 86.9349 16.1905C86.9273 16.8579 86.9119 17.5137 86.889 18.1577C86.866 18.7941 86.8392 19.3683 86.8086 19.8805C86.778 20.3927 86.7397 20.8195 86.6938 21.1609C86.6556 21.5024 86.6058 21.708 86.5446 21.7779C86.4298 21.9175 86.2614 22.0223 86.0394 22.0921C85.8175 22.162 85.5764 22.2124 85.3162 22.2435C85.0559 22.2823 84.7996 22.3055 84.547 22.3133C84.2944 22.3211 84.0878 22.3249 83.927 22.3249C83.9347 22.2241 83.9385 22.1232 83.9385 22.0223C83.9462 21.9292 83.9538 21.8361 83.9615 21.7429L77.9113 21.9175C77.9113 21.9563 77.9113 21.9913 77.9113 22.0223C77.9113 22.0611 77.9075 22.0999 77.8998 22.1387C77.8922 22.2085 77.831 22.259 77.7161 22.29C77.6013 22.3288 77.4712 22.356 77.3258 22.3715C77.188 22.387 77.0541 22.3948 76.924 22.3948C76.7939 22.3948 76.7059 22.3948 76.66 22.3948C76.415 22.3948 76.1701 22.387 75.9252 22.3715C75.6879 22.3637 75.4469 22.3521 75.2019 22.3366C75.1713 22.0572 75.1522 21.7779 75.1445 21.4985C75.1369 21.2114 75.1292 20.9281 75.1216 20.6488C75.1063 19.9891 75.0948 19.3334 75.0871 18.6816C75.0795 18.0219 75.0718 17.3623 75.0642 16.7027C75.0489 15.6396 75.0374 14.5803 75.0297 13.5249C75.0297 12.4618 75.0259 11.3948 75.0183 10.3239ZM79.6563 15.1546L79.6104 12.3376C79.0287 12.3609 78.4432 12.3958 77.8539 12.4424L77.8769 15.1546H79.6563ZM84.1911 15.1546V14.8985C84.1911 14.7588 84.1911 14.6114 84.1911 14.4562C84.1987 14.301 84.1987 14.1419 84.1911 13.9789C84.1834 13.8159 84.172 13.6569 84.1567 13.5017C84.149 13.3387 84.126 13.1912 84.0878 13.0593C84.0572 12.9429 83.9806 12.8459 83.8582 12.7683C83.7357 12.683 83.5826 12.6131 83.3989 12.5588C83.2229 12.5045 83.0277 12.4618 82.8134 12.4308C82.5991 12.3997 82.381 12.3764 82.1591 12.3609C82.182 12.8265 82.205 13.2921 82.2279 13.7577C82.2586 14.2233 82.2853 14.689 82.3083 15.1546H84.1911ZM84.0533 19.7757C84.0686 19.3567 84.0839 18.9454 84.0992 18.5419C84.1146 18.1383 84.1299 17.7271 84.1452 17.308L82.4001 17.3778C82.4078 17.6262 82.4116 17.8784 82.4116 18.1345C82.4193 18.3828 82.4231 18.6311 82.4231 18.8794C82.4231 18.9415 82.4193 19.0696 82.4116 19.2636C82.4116 19.4576 82.404 19.6516 82.3887 19.8456L84.0533 19.7757ZM79.7252 19.9387L79.6908 17.5059L77.8884 17.5874C77.896 17.9909 77.8998 18.3944 77.8998 18.798C77.8998 19.1937 77.8998 19.5973 77.8998 20.0085L79.7252 19.9387Z" fill="#FFBC46"/>
<path d="M47.771 5.12069H50.1245L50.1589 2.87413H53.0635L53.075 3.74714C53.075 3.94891 53.0711 4.16619 53.0635 4.399C53.0558 4.6318 53.0443 4.87237 53.029 5.12069H55.6695L56.0369 2.78101C56.0446 2.78101 56.0981 2.78489 56.1976 2.79265C56.3048 2.80041 56.4311 2.81593 56.5765 2.83921C56.7219 2.85473 56.8788 2.87413 57.0472 2.89741C57.2156 2.91293 57.3763 2.93233 57.5294 2.95561C57.6824 2.97889 57.8125 3.00217 57.9197 3.02545C58.0268 3.04873 58.0881 3.07201 58.1034 3.09529C58.134 3.12633 58.1608 3.23885 58.1837 3.43286C58.2144 3.62686 58.2373 3.83639 58.2526 4.06143C58.2756 4.28648 58.2947 4.50376 58.31 4.71328C58.3253 4.91505 58.333 5.05085 58.333 5.12069H61.1342C61.1572 5.4311 61.1801 5.7415 61.2031 6.05191C61.226 6.36232 61.2375 6.67272 61.2375 6.98313C61.2375 7.02193 61.2375 7.06073 61.2375 7.09953C61.2375 7.13057 61.2337 7.16549 61.226 7.20429C61.2184 7.23533 61.1878 7.25861 61.1342 7.27413C61.0806 7.28189 61.0462 7.28965 61.0309 7.29741C60.6252 7.39054 60.1928 7.4371 59.7336 7.4371C59.2744 7.4371 58.8381 7.44098 58.4248 7.44874H58.1493C58.0957 7.72034 58.0268 7.95703 57.9426 8.15879C57.8585 8.35279 57.7513 8.52352 57.6212 8.67096C57.4987 8.8184 57.3418 8.94257 57.1505 9.04345C56.9668 9.13657 56.7449 9.21805 56.4846 9.28789C56.3775 9.31893 56.2665 9.34609 56.1517 9.36937C56.0446 9.38489 55.9336 9.39265 55.8188 9.39265C55.6734 9.39265 55.5356 9.37713 55.4055 9.34609C55.283 9.31505 55.1529 9.27625 55.0151 9.22969L55.3022 7.46038C54.8506 7.45262 54.4029 7.44874 53.959 7.44874C53.5227 7.44098 53.0788 7.42934 52.6272 7.41382C52.4971 7.84838 52.3211 8.24803 52.0991 8.61276C51.8848 8.97749 51.6093 9.27237 51.2725 9.49742C51.1424 9.59054 51.0123 9.66814 50.8822 9.73022C50.7521 9.78454 50.6067 9.8117 50.4459 9.8117C50.3771 9.8117 50.3082 9.80394 50.2393 9.78842C50.1781 9.76514 50.1168 9.74186 50.0556 9.71858L50.0901 7.35561C50.0288 7.35561 49.9714 7.35561 49.9179 7.35561C49.8643 7.34785 49.8069 7.34397 49.7456 7.34397C49.5696 7.33621 49.3744 7.33233 49.1601 7.33233C48.9535 7.33233 48.7622 7.31293 48.5861 7.27413C48.4024 7.22757 48.2608 7.11893 48.1614 6.94821C48.0619 6.76972 47.9853 6.57184 47.9317 6.35456C47.8782 6.12951 47.8399 5.90447 47.8169 5.67942C47.8016 5.45438 47.7863 5.26813 47.771 5.12069ZM39.4937 4.91117L42.3523 5.09741C42.3523 5.19829 42.3523 5.29529 42.3523 5.38842C42.3523 5.48154 42.3561 5.57854 42.3638 5.67942L46.8067 5.43498C46.8067 5.50482 46.8067 5.66778 46.8067 5.92387C46.8067 6.17995 46.8028 6.49424 46.7952 6.86673C46.7952 7.23145 46.7914 7.63886 46.7837 8.08895C46.7761 8.53904 46.7646 8.99689 46.7493 9.4625C46.7416 9.9281 46.7301 10.386 46.7148 10.836C46.6995 11.2784 46.6766 11.6819 46.6459 12.0466C46.623 12.4036 46.5924 12.7024 46.5541 12.9429C46.5158 13.1757 46.4737 13.3154 46.4278 13.362C46.3513 13.4318 46.2365 13.49 46.0834 13.5366C45.938 13.5754 45.7773 13.6064 45.6012 13.6297C45.4328 13.653 45.2645 13.6685 45.0961 13.6763C44.9277 13.6763 44.7899 13.6763 44.6828 13.6763C44.5527 13.6763 44.4226 13.6763 44.2925 13.6763C44.1623 13.6685 44.0322 13.6646 43.9021 13.6646C43.9098 13.5482 43.9136 13.4318 43.9136 13.3154C43.9136 13.199 43.9174 13.0826 43.9251 12.9662L42.4212 12.9546V13.362C42.4212 13.4085 42.3599 13.4473 42.2375 13.4784C42.1227 13.5017 41.9887 13.5211 41.8357 13.5366C41.6902 13.5443 41.5486 13.5482 41.4109 13.5482C41.2808 13.5482 41.1966 13.5482 41.1583 13.5482C41.1124 13.5482 41.0129 13.5482 40.8598 13.5482C40.7067 13.5405 40.5422 13.5366 40.3662 13.5366C40.1978 13.5288 40.0447 13.5249 39.9069 13.5249C39.7692 13.5172 39.6926 13.5094 39.6773 13.5017C39.6697 13.4939 39.662 13.4784 39.6544 13.4551C39.6544 13.4241 39.6544 13.4047 39.6544 13.3969C39.6161 13.102 39.597 12.8032 39.597 12.5006C39.597 12.1902 39.5931 11.8875 39.5855 11.5927C39.5549 10.4752 39.5357 9.36161 39.5281 8.25191C39.5204 7.14221 39.509 6.02863 39.4937 4.91117ZM43.9825 10.9757C43.9901 10.7196 43.994 10.4636 43.994 10.2075C44.0016 9.94363 44.0054 9.67978 44.0054 9.41594C44.0054 9.30729 44.0054 9.15597 44.0054 8.96197C44.0054 8.7602 44.0016 8.55456 43.994 8.34503C43.9863 8.12775 43.9748 7.92599 43.9595 7.73974C43.9442 7.54574 43.9213 7.3983 43.8906 7.29741C43.86 7.18877 43.795 7.10341 43.6955 7.04133C43.596 6.97925 43.485 6.93269 43.3625 6.90165C43.2401 6.87061 43.1138 6.85508 42.9837 6.85508C42.8536 6.84732 42.7426 6.84344 42.6508 6.84344C42.6048 6.84344 42.5589 6.84344 42.513 6.84344C42.4671 6.84344 42.4212 6.84732 42.3752 6.85508C42.3829 7.5535 42.3867 8.24415 42.3867 8.92705C42.3944 9.60994 42.402 10.3006 42.4097 10.999L43.9825 10.9757ZM48.5861 10.3239L51.4103 10.58V10.5916L60.5602 10.3821C60.5602 10.483 60.5602 10.7196 60.5602 11.0921C60.5602 11.4569 60.5564 11.9069 60.5487 12.4424C60.5487 12.9701 60.5449 13.5599 60.5372 14.2117C60.5296 14.8558 60.5181 15.5154 60.5028 16.1905C60.4951 16.8579 60.4798 17.5137 60.4569 18.1577C60.4339 18.7941 60.4071 19.3683 60.3765 19.8805C60.3459 20.3927 60.3076 20.8195 60.2617 21.1609C60.2234 21.5024 60.1737 21.708 60.1124 21.7779C59.9976 21.9175 59.8293 22.0223 59.6073 22.0921C59.3854 22.162 59.1443 22.2124 58.884 22.2435C58.6238 22.2823 58.3674 22.3055 58.1149 22.3133C57.8623 22.3211 57.6556 22.3249 57.4949 22.3249C57.5026 22.2241 57.5064 22.1232 57.5064 22.0223C57.514 21.9292 57.5217 21.8361 57.5294 21.7429L51.4792 21.9175C51.4792 21.9563 51.4792 21.9913 51.4792 22.0223C51.4792 22.0611 51.4754 22.0999 51.4677 22.1387C51.4601 22.2085 51.3988 22.259 51.284 22.29C51.1692 22.3288 51.0391 22.356 50.8937 22.3715C50.7559 22.387 50.622 22.3948 50.4919 22.3948C50.3618 22.3948 50.2737 22.3948 50.2278 22.3948C49.9829 22.3948 49.738 22.387 49.4931 22.3715C49.2558 22.3637 49.0147 22.3521 48.7698 22.3366C48.7392 22.0572 48.7201 21.7779 48.7124 21.4985C48.7048 21.2114 48.6971 20.9281 48.6894 20.6488C48.6741 19.9891 48.6627 19.3334 48.655 18.6816C48.6474 18.0219 48.6397 17.3623 48.632 16.7027C48.6167 15.6396 48.6053 14.5803 48.5976 13.5249C48.5976 12.4618 48.5938 11.3948 48.5861 10.3239ZM53.2242 15.1546L53.1783 12.3376C52.5966 12.3609 52.0111 12.3958 51.4218 12.4424L51.4447 15.1546H53.2242ZM57.759 15.1546V14.8985C57.759 14.7588 57.759 14.6114 57.759 14.4562C57.7666 14.301 57.7666 14.1419 57.759 13.9789C57.7513 13.8159 57.7398 13.6569 57.7245 13.5017C57.7169 13.3387 57.6939 13.1912 57.6556 13.0593C57.625 12.9429 57.5485 12.8459 57.426 12.7683C57.3036 12.683 57.1505 12.6131 56.9668 12.5588C56.7908 12.5045 56.5956 12.4618 56.3813 12.4308C56.167 12.3997 55.9489 12.3764 55.7269 12.3609C55.7499 12.8265 55.7729 13.2921 55.7958 13.7577C55.8264 14.2233 55.8532 14.689 55.8762 15.1546H57.759ZM57.6212 19.7757C57.6365 19.3567 57.6518 18.9454 57.6671 18.5419C57.6824 18.1383 57.6977 17.7271 57.713 17.308L55.968 17.3778C55.9757 17.6262 55.9795 17.8784 55.9795 18.1345C55.9872 18.3828 55.991 18.6311 55.991 18.8794C55.991 18.9415 55.9872 19.0696 55.9795 19.2636C55.9795 19.4576 55.9718 19.6516 55.9565 19.8456L57.6212 19.7757ZM53.2931 19.9387L53.2586 17.5059L51.4562 17.5874C51.4639 17.9909 51.4677 18.3944 51.4677 18.798C51.4677 19.1937 51.4677 19.5973 51.4677 20.0085L53.2931 19.9387Z" fill="#FFBC46"/>
<path d="M130.151 45.0001C129.709 45.0001 129.313 44.9157 128.963 44.7469C128.613 44.584 128.283 44.3483 127.973 44.0398L128.041 43.1406C128.162 43.2163 128.297 43.289 128.446 43.3589C128.595 43.4287 128.745 43.4636 128.894 43.4636C129.014 43.4636 129.118 43.4229 129.204 43.3414C129.296 43.2657 129.37 43.1697 129.428 43.0533C129.491 42.9427 129.537 42.8205 129.566 42.6866C129.594 42.5586 129.609 42.4451 129.609 42.3462V40.1461C129.322 40.379 129.014 40.5652 128.687 40.7049C128.36 40.8446 127.998 40.9144 127.602 40.9144C127.476 40.9144 127.347 40.9086 127.215 40.8969C127.083 40.8795 126.951 40.8533 126.819 40.8184C126.693 40.7835 126.569 40.734 126.449 40.67C126.334 40.6059 126.23 40.5274 126.139 40.4342C125.961 40.248 125.814 40.0559 125.699 39.8581C125.59 39.6543 125.501 39.4448 125.433 39.2295C125.364 39.0083 125.312 38.7813 125.278 38.5485C125.249 38.3099 125.226 38.0655 125.209 37.8152C125.186 37.5416 125.169 37.271 125.157 37.0033C125.151 36.7297 125.148 36.4533 125.148 36.1739C125.148 35.6501 125.16 35.1292 125.183 34.6112C125.206 34.0874 125.249 33.5665 125.312 33.0485C125.312 33.0136 125.318 32.9438 125.329 32.839C125.346 32.7342 125.364 32.6237 125.381 32.5073C125.398 32.3908 125.418 32.289 125.441 32.2017C125.47 32.1086 125.496 32.062 125.519 32.062H127.766C127.726 32.6615 127.691 33.258 127.663 33.8517C127.64 34.4395 127.628 35.0332 127.628 35.6327C127.628 35.8305 127.628 36.0401 127.628 36.2612C127.628 36.4824 127.631 36.7036 127.637 36.9247C127.648 37.1459 127.663 37.367 127.68 37.5882C127.703 37.8036 127.732 38.0102 127.766 38.2081C127.823 38.5049 127.953 38.7522 128.153 38.9501C128.354 39.148 128.607 39.2469 128.911 39.2469C129.032 39.2469 129.149 39.2295 129.264 39.1946C129.379 39.1596 129.494 39.116 129.609 39.0636V32.1319H131.856C131.862 33.5345 131.867 34.9342 131.873 36.3311C131.879 37.7221 131.882 39.1218 131.882 40.5303C131.882 41.0657 131.882 41.5983 131.882 42.1279C131.887 42.6633 131.879 43.1988 131.856 43.7342C131.77 43.9263 131.672 44.1009 131.563 44.2581C131.46 44.4152 131.339 44.5462 131.201 44.6509C131.064 44.7615 130.909 44.8459 130.737 44.9041C130.564 44.9681 130.369 45.0001 130.151 45.0001Z" fill="#CEC2B2"/>
<path d="M123.707 31.7565V33.5374H122.364C122.37 33.7819 122.373 34.0205 122.373 34.2533C122.378 34.4861 122.384 34.7248 122.39 34.9692C122.39 35.1089 122.39 35.2835 122.39 35.493C122.396 35.6967 122.401 35.9062 122.407 36.1216C122.413 36.3311 122.421 36.5377 122.433 36.7414C122.45 36.9393 122.473 37.1052 122.502 37.239C122.542 37.4078 122.594 37.6115 122.657 37.8502C122.726 38.083 122.812 38.3099 122.915 38.5311C123.024 38.7523 123.153 38.9443 123.302 39.1073C123.457 39.2703 123.638 39.3663 123.845 39.3954L123.724 40.6962H123.716C123.44 40.7835 123.168 40.865 122.898 40.9406C122.628 41.0105 122.35 41.0454 122.063 41.0454C121.793 41.0454 121.537 41.0017 121.296 40.9144C121.055 40.8213 120.851 40.6642 120.685 40.443C120.507 40.2044 120.369 39.9047 120.272 39.5438C120.18 39.183 120.111 38.8046 120.065 38.4089C120.025 38.0073 120.002 37.6144 119.996 37.2303C119.996 36.8404 119.996 36.4999 119.996 36.2089C119.996 35.7607 120.002 35.3155 120.013 34.8732C120.025 34.4308 120.039 33.9856 120.056 33.5374H119.058V31.7565H120.134C120.157 31.3665 120.177 30.9795 120.194 30.5954C120.217 30.2054 120.243 29.8155 120.272 29.4255L122.364 29.5739V31.7565H123.707Z" fill="#CEC2B2"/>
<path d="M115.756 31.896V32.7865C115.922 32.6875 116.095 32.6119 116.273 32.5595C116.451 32.5013 116.64 32.4722 116.841 32.4722C116.996 32.4722 117.151 32.4867 117.306 32.5158C117.461 32.5449 117.613 32.5857 117.762 32.6381L117.702 33.8341C117.576 33.7817 117.435 33.7555 117.28 33.7555C117.108 33.7555 116.947 33.805 116.798 33.9039C116.649 33.9971 116.511 34.1251 116.385 34.2881C116.258 34.4452 116.143 34.6285 116.04 34.8381C115.937 35.0476 115.842 35.2658 115.756 35.4928V40.3817H113.268V31.896H115.756Z" fill="#CEC2B2"/>
<path d="M109.466 40.5389C109.466 40.4283 109.466 40.3032 109.466 40.1635C109.466 40.018 109.464 39.8579 109.458 39.6833C109.24 39.7765 109.007 39.855 108.76 39.9191C108.514 39.9831 108.264 40.0355 108.011 40.0762C107.759 40.1169 107.509 40.146 107.262 40.1635C107.021 40.1751 106.794 40.181 106.582 40.181C106.364 40.181 106.117 40.1548 105.842 40.1024C105.566 40.05 105.328 39.9773 105.127 39.8841C104.777 39.7212 104.536 39.4884 104.404 39.1857C104.272 38.8831 104.206 38.5455 104.206 38.173C104.206 38.1032 104.206 38.0275 104.206 37.946C104.211 37.8646 104.22 37.7889 104.231 37.7191C104.266 37.5503 104.329 37.3873 104.421 37.2302C104.518 37.0672 104.63 36.9159 104.757 36.7762C104.889 36.6307 105.029 36.4997 105.179 36.3833C105.334 36.2669 105.483 36.1709 105.626 36.0952C106.074 35.8508 106.53 35.682 106.995 35.5889C107.46 35.4958 107.945 35.4492 108.45 35.4492C108.514 35.4492 108.58 35.4492 108.648 35.4492C108.723 35.4492 108.795 35.4521 108.864 35.4579C108.703 35.0389 108.499 34.6955 108.252 34.4278C108.011 34.1601 107.707 34.0262 107.34 34.0262C107.173 34.0262 107.001 34.0582 106.823 34.1222C106.651 34.1862 106.482 34.2677 106.315 34.3667C106.154 34.4656 105.999 34.5762 105.85 34.6984C105.707 34.8148 105.575 34.9283 105.454 35.0389L104.111 34.0087C104.163 33.7585 104.26 33.5286 104.404 33.319C104.553 33.1095 104.731 32.9233 104.937 32.7603C105.144 32.5915 105.371 32.446 105.618 32.3238C105.87 32.1958 106.129 32.091 106.393 32.0095C106.657 31.9222 106.918 31.8582 107.176 31.8175C107.434 31.7767 107.676 31.7563 107.899 31.7563C108.41 31.7563 108.895 31.8349 109.355 31.9921C109.814 32.1492 110.227 32.4111 110.594 32.7778C110.784 32.964 110.933 33.1881 111.042 33.45C111.151 33.7119 111.234 33.9884 111.292 34.2794C111.355 34.5704 111.395 34.8643 111.412 35.1611C111.43 35.4579 111.438 35.7315 111.438 35.9818C111.438 36.3251 111.421 36.6714 111.387 37.0206C111.358 37.364 111.321 37.7074 111.275 38.0508C111.234 38.3942 111.189 38.7376 111.137 39.081C111.091 39.4243 111.051 39.7677 111.016 40.1111L109.466 40.5389ZM109.415 38.6619C109.392 38.3127 109.36 37.9519 109.32 37.5794C109.28 37.2069 109.222 36.8431 109.148 36.4881C108.867 36.523 108.551 36.5783 108.201 36.654C107.856 36.7296 107.529 36.8315 107.219 36.9595C106.915 37.0876 106.657 37.2447 106.444 37.431C106.238 37.6172 106.134 37.8325 106.134 38.077C106.134 38.2632 106.189 38.4116 106.298 38.5222C106.407 38.627 106.539 38.7085 106.694 38.7667C106.849 38.8191 107.013 38.854 107.185 38.8714C107.363 38.8831 107.521 38.8889 107.658 38.8889C107.951 38.8889 108.244 38.8685 108.537 38.8278C108.835 38.787 109.128 38.7318 109.415 38.6619Z" fill="#CEC2B2"/>
<path d="M98.3901 39.6833C98.2523 39.8288 98.0801 39.9423 97.8735 40.0238C97.6668 40.0995 97.4458 40.1577 97.2105 40.1984C96.9809 40.2391 96.7513 40.2653 96.5217 40.277C96.2921 40.2828 96.0825 40.2857 95.8931 40.2857H95.6606V27.4H97.9252V27.3912C98.0285 27.3854 98.1289 27.3825 98.2265 27.3825C98.3298 27.3767 98.4332 27.3738 98.5365 27.3738C99.2138 27.3738 99.8539 27.4407 100.457 27.5746C101.059 27.7026 101.585 27.9238 102.032 28.2381C102.486 28.5465 102.842 28.9598 103.1 29.4778C103.364 29.9957 103.496 30.6447 103.496 31.4246C103.496 32.2394 103.318 32.9669 102.962 33.6071C102.606 34.2473 102.075 34.7682 101.369 35.1698C100.939 35.4143 100.48 35.586 99.9916 35.6849C99.5094 35.7838 99.0244 35.8391 98.5365 35.8508V35.8595C98.5078 35.8595 98.482 35.8595 98.459 35.8595C98.4418 35.8537 98.4188 35.8508 98.3901 35.8508V39.6833ZM98.3901 34.5762C98.7632 34.5238 99.0962 34.3987 99.3889 34.2008C99.6817 33.9971 99.9285 33.7468 100.129 33.45C100.33 33.1532 100.482 32.8243 100.586 32.4635C100.695 32.1026 100.749 31.7389 100.749 31.3722C100.749 30.9706 100.695 30.5981 100.586 30.2547C100.482 29.9113 100.327 29.6087 100.121 29.3468C99.9199 29.0849 99.673 28.8695 99.3803 28.7008C99.0933 28.532 98.7632 28.4214 98.3901 28.369V34.5762Z" fill="#CEC2B2"/>
<path d="M86.5861 31.5295C86.6665 32.1348 86.7181 32.743 86.7411 33.3541C86.7698 33.9594 86.7842 34.5676 86.7842 35.1788C86.7842 35.6909 86.7669 36.1973 86.7325 36.6978C86.7038 37.1925 86.6493 37.693 86.5689 38.1994C86.5345 38.4206 86.4799 38.6097 86.4053 38.7669C86.3307 38.924 86.2101 39.0811 86.0437 39.2383C85.7796 39.4827 85.4668 39.6719 85.1051 39.8057C84.7493 39.9338 84.3876 40.0182 84.0202 40.0589C83.8251 40.1055 83.627 40.1433 83.4261 40.1724C83.231 40.2015 83.0301 40.2161 82.8234 40.2161C82.4216 40.2161 82.0686 40.1346 81.7644 39.9716C81.4659 39.8028 81.1932 39.5788 80.9464 39.2994C80.7971 39.4333 80.6421 39.5613 80.4814 39.6835C80.3207 39.7999 80.1514 39.9047 79.9734 39.9978C79.8012 40.0851 79.6175 40.1549 79.4224 40.2073C79.2329 40.2597 79.0349 40.2859 78.8282 40.2859C78.3059 40.2859 77.8352 40.187 77.4162 39.9891C77.0029 39.7854 76.6584 39.4536 76.3829 38.9938C76.337 38.697 76.314 38.3915 76.314 38.0772C76.314 37.7629 76.3083 37.4544 76.2968 37.1518C76.2681 36.2264 76.2452 35.3068 76.2279 34.393C76.2107 33.4793 76.1935 32.5597 76.1763 31.6343L78.768 31.7129L78.9746 37.8415C78.9804 37.9404 79.0033 38.051 79.0435 38.1732C79.0894 38.2896 79.1468 38.4002 79.2157 38.5049C79.2903 38.6039 79.3764 38.6883 79.474 38.7581C79.5716 38.828 79.6749 38.8629 79.784 38.8629C79.9045 38.8629 80.0251 38.8396 80.1456 38.793C80.2719 38.7465 80.3896 38.6912 80.4986 38.6272L80.4211 31.7653H82.6684L82.7459 38.0859C82.8091 38.1965 82.8866 38.2896 82.9784 38.3653C83.0702 38.4351 83.1707 38.4933 83.2798 38.5399C83.3946 38.5864 83.5151 38.6213 83.6414 38.6446C83.7677 38.6621 83.894 38.6737 84.0202 38.6796C84.0949 38.278 84.1494 37.8473 84.1838 37.3875C84.224 36.9277 84.2499 36.4737 84.2613 36.0256C84.2786 35.5716 84.2872 35.1438 84.2872 34.7422C84.2872 34.3348 84.2872 33.9856 84.2872 33.6946C84.2872 33.328 84.2843 32.9671 84.2786 32.6121C84.2728 32.2571 84.2642 31.8962 84.2527 31.5295H86.5861Z" fill="#CEC2B2"/>
<path d="M70.7741 40.242C70.4813 40.242 70.1857 40.2362 69.8872 40.2246C69.5945 40.2129 69.3046 40.1751 69.0176 40.1111C68.8109 40.0645 68.6158 39.9976 68.4321 39.9103C68.2484 39.823 68.0819 39.7037 67.9327 39.5524C67.7318 39.3545 67.5739 39.1042 67.4591 38.8016C67.35 38.4931 67.2668 38.1672 67.2094 37.8238C67.152 37.4804 67.1176 37.1399 67.1061 36.8024C67.0946 36.459 67.0889 36.1534 67.0889 35.8857C67.0889 35.6354 67.0917 35.3706 67.0975 35.0912C67.1032 34.8119 67.1233 34.5354 67.1577 34.2619C67.1979 33.9825 67.2553 33.7148 67.33 33.4587C67.4103 33.2026 67.5223 32.9727 67.6658 32.769C67.8093 32.5595 67.9872 32.3849 68.1996 32.2452C68.4177 32.0997 68.6846 32.0066 69.0004 31.9658C69.3275 31.9193 69.6519 31.896 69.9733 31.896C70.3005 31.896 70.6277 31.896 70.9549 31.896C71.2304 31.896 71.5088 31.8989 71.7901 31.9047C72.0714 31.9047 72.3498 31.928 72.6253 31.9746C72.9984 32.0269 73.3227 32.1725 73.5983 32.4111C73.7934 32.5799 73.9455 32.8127 74.0546 33.1095C74.1637 33.4005 74.244 33.7119 74.2957 34.0436C74.3473 34.3754 74.3789 34.7042 74.3904 35.0301C74.4019 35.3561 74.4076 35.6412 74.4076 35.8857C74.4076 36.1476 74.4019 36.4502 74.3904 36.7936C74.3789 37.137 74.3473 37.4833 74.2957 37.8325C74.244 38.1759 74.1637 38.5047 74.0546 38.819C73.9455 39.1275 73.7934 39.3807 73.5983 39.5785C73.449 39.7299 73.2854 39.8492 73.1075 39.9365C72.9295 40.018 72.7401 40.0791 72.5392 40.1198C72.2464 40.178 71.9508 40.2129 71.6523 40.2246C71.3596 40.2362 71.0668 40.242 70.7741 40.242ZM70.7655 33.4325C70.599 33.4325 70.4498 33.4791 70.3177 33.5722C70.1914 33.6653 70.0824 33.7875 69.9905 33.9389C69.8987 34.0902 69.8212 34.2619 69.7581 34.4539C69.6949 34.6402 69.6433 34.8293 69.6031 35.0214C69.5686 35.2076 69.5428 35.391 69.5256 35.5714C69.5141 35.746 69.5084 35.8944 69.5084 36.0166C69.5084 36.1389 69.5141 36.2902 69.5256 36.4706C69.5428 36.6452 69.5686 36.8285 69.6031 37.0206C69.6433 37.2068 69.6949 37.396 69.7581 37.5881C69.8212 37.7743 69.8987 37.9431 69.9905 38.0944C70.0824 38.2457 70.1914 38.368 70.3177 38.4611C70.4498 38.5542 70.599 38.6008 70.7655 38.6008C70.9319 38.6008 71.0783 38.5542 71.2046 38.4611C71.3366 38.368 71.4485 38.2457 71.5404 38.0944C71.6322 37.9431 71.7097 37.7743 71.7729 37.5881C71.836 37.396 71.8848 37.2068 71.9192 37.0206C71.9594 36.8285 71.9853 36.6452 71.9967 36.4706C72.014 36.2902 72.0226 36.1389 72.0226 36.0166C72.0226 35.8944 72.014 35.746 71.9967 35.5714C71.9853 35.391 71.9594 35.2076 71.9192 35.0214C71.8848 34.8293 71.836 34.6402 71.7729 34.4539C71.7097 34.2619 71.6322 34.0902 71.5404 33.9389C71.4485 33.7875 71.3366 33.6653 71.2046 33.5722C71.0783 33.4791 70.9319 33.4325 70.7655 33.4325Z" fill="#CEC2B2"/>
<path d="M58.2075 36.5666C58.2075 36.2756 58.2133 35.9875 58.2247 35.7024C58.2362 35.4114 58.2649 35.1233 58.3108 34.8381C58.3912 34.3201 58.5519 33.901 58.793 33.5809C59.0398 33.255 59.3383 33.0047 59.6885 32.8301C60.0386 32.6497 60.4261 32.5275 60.8509 32.4635C61.2757 32.3994 61.7119 32.3674 62.1596 32.3674C62.705 32.3674 63.1929 32.4402 63.6234 32.5857C64.0597 32.7312 64.427 32.9465 64.7255 33.2317C65.0297 33.5169 65.2594 33.8748 65.4143 34.3055C65.5751 34.7304 65.6554 35.228 65.6554 35.7984C65.6554 35.9614 65.6468 36.1243 65.6296 36.2873C65.6124 36.4444 65.5923 36.6045 65.5693 36.7674L60.3687 36.6976C60.3859 36.9537 60.4232 37.1923 60.4806 37.4135C60.538 37.6288 60.627 37.818 60.7476 37.9809C60.8738 38.1439 61.0317 38.2719 61.2211 38.3651C61.4163 38.4524 61.6545 38.496 61.9358 38.496C62.1195 38.496 62.3232 38.4727 62.5471 38.4262C62.771 38.3738 62.9977 38.3098 63.2273 38.2341C63.4569 38.1584 63.6808 38.0799 63.8989 37.9984C64.1171 37.9111 64.3094 37.8296 64.4758 37.7539L65.1044 38.6968C65.0527 39.0635 64.9408 39.3719 64.7686 39.6222C64.5964 39.8666 64.384 40.0645 64.1314 40.2159C63.8846 40.3614 63.6062 40.4661 63.2962 40.5301C62.9862 40.5883 62.6648 40.6174 62.3319 40.6174C61.7062 40.6174 61.1379 40.5301 60.627 40.3555C60.1161 40.1751 59.6828 39.9132 59.3269 39.5698C58.971 39.2206 58.6954 38.7957 58.5003 38.2952C58.3051 37.7889 58.2075 37.2127 58.2075 36.5666ZM63.5459 35.7722C63.5574 35.6965 63.566 35.6238 63.5717 35.5539C63.5832 35.4841 63.589 35.4114 63.589 35.3357C63.589 35.0912 63.5488 34.8526 63.4684 34.6198C63.388 34.387 63.2732 34.1833 63.124 34.0087C62.9748 33.8283 62.7968 33.6857 62.5902 33.5809C62.3835 33.4703 62.151 33.4151 61.8927 33.4151C61.5942 33.4151 61.3474 33.4907 61.1522 33.642C60.9571 33.7875 60.8021 33.9738 60.6873 34.2008C60.5725 34.4219 60.4921 34.6693 60.4462 34.9428C60.4003 35.2106 60.3773 35.4666 60.3773 35.7111L63.5459 35.7722Z" fill="#CEC2B2"/>
<path d="M53.8557 40.277V32.4722L52.745 38.3389H51.4448L50.1877 32.3063V40.277H47.5874V28.1682H50.1102L52.0906 35.5277L53.9504 28.1682H56.4646V40.277H53.8557Z" fill="#CEC2B2"/>
<path d="M22.7897 37.9747C24.5687 37.5984 25.9075 35.9611 25.9075 33.9984C25.9075 31.7574 24.1622 29.9407 22.0092 29.9407H18.0606M22.7897 37.9747C22.5375 38.028 22.2765 38.056 22.0092 38.056H21.4285V39.9989C22.0921 39.8694 23.5437 39.8435 24.0414 40.7759C24.5391 41.7084 24.5529 42.4596 24.4976 42.7186H11.2738M22.7897 37.9747L25.2856 38.7038C25.8165 38.9455 27.6238 41.6681 28.4533 42.7186C28.4533 42.7186 30.4036 42.7186 31.556 42.7186C31.7333 40.194 30.2491 40.1942 29.3091 39.302L29.5309 25.0117C29.5309 23.1447 29.5309 23.0658 29.5309 22.6059C29.5309 22.1461 28.683 17.7688 28.4533 17.4763C27.783 12.6664 31.8878 15.3028 31.756 12.2408C32.3383 11.5518 30.3136 8.50026 29.3091 7.3626C29.6829 6.40289 29.0213 2.72099 28.6438 1L25.0886 4.77451C25.0715 4.77427 25.0544 4.77415 25.0373 4.77415C24.4413 4.77415 23.8563 4.85847 23.2966 5.01663C23.1561 3.43701 22.7019 0.485463 22.0092 1.31618C21.3165 2.14689 19.7112 6.72208 18.9951 8.90584C18.7457 9.56592 18.6079 10.2809 18.6079 11.032C18.6079 12.8739 18.2236 15.1923 18.9062 16.988H18.8572C11.8938 16.988 6.24885 22.558 6.24885 29.4289C6.24885 32.9595 8.87982 37.2569 11.2738 39.5213V42.7186M11.2738 42.7186C7.65514 42.6328 2.65829 42.2925 1.30588 33.9984C0.224343 27.3655 1.95294 24.525 7.4187 18.8358C9.92899 16.2229 12.1797 12.3638 8.81812 8.90584" stroke="#CEC2B2" stroke-width="2" stroke-linecap="round" stroke-linejoin="round"/>
</svg>
