<svg width="270" height="45" viewBox="0 0 270 45" fill="none" xmlns="http://www.w3.org/2000/svg">
<path d="M88.0183 3.2799C88.0183 4.51441 88.9052 5.48439 88.8165 6.71891C86.6881 10.1579 84.6483 13.6851 82.6086 17.2123C81.1896 19.5932 80.1254 22.1504 78.7064 24.5312C77.2874 26.9121 75.9572 29.3811 74.5382 31.8501C73.474 33.7901 71.8777 35.4655 71.0795 37.5818C70.9021 38.1109 70.4587 38.64 70.37 39.2572C70.2813 39.8745 70.0153 40.3154 69.5719 40.7563C68.419 41.8144 67.266 41.6381 66.3792 40.4036C64.1621 37.0527 61.8563 33.7019 59.2844 30.6156C58.2202 29.3811 57.3333 28.0584 56.7125 26.5594C55.0275 22.8558 53.4312 19.1523 51.4801 15.5369C49.8838 12.5388 48.1988 9.54066 45.8043 6.98344C45.9816 6.01347 45.5382 5.04349 45.3608 4.16169C46.4251 4.42623 47.3119 3.98534 47.9327 3.19172C48.3761 3.10354 48.8196 3.10353 49.1743 3.01535C49.5291 3.36807 49.7951 3.2799 49.9725 2.92718C53.7859 2.04538 57.7767 1.9572 61.6789 1.60448C66.6452 1.16358 71.7003 1.33994 76.6667 0.987224C79.8593 0.722685 83.1406 0.546326 86.3333 0.546326C86.8654 0.546326 87.3089 0.546322 87.7523 0.810861C87.9297 1.25176 88.1957 1.60448 88.6391 1.78084C88.7278 1.86902 88.8165 1.9572 88.9052 2.04538C88.9939 2.57446 87.7523 2.30992 88.0183 3.2799Z" fill="#FFC7C3"/>
<path d="M179.453 5.83721C179.364 6.80719 179.63 7.77716 179.896 8.74714C179.098 8.65896 178.743 9.27622 178.3 9.62894C176.171 11.6571 174.043 13.6852 172.358 16.1542C171.382 17.5651 170.141 18.7115 169.165 20.0342C167.303 22.5914 165.884 25.4131 164.022 27.9703C162.957 29.4694 161.538 30.7921 160.208 32.203C159.587 32.8202 158.966 33.4375 158.612 34.1429C157.193 37.4056 154 37.3174 152.049 34.4075C149.566 30.6157 146.728 27.1767 144.511 23.2086C143.092 20.6514 141.318 18.2706 139.544 15.8897C138.125 14.0379 136.973 12.0098 135.82 9.98166C134.933 8.30624 133.78 6.80719 132.45 5.39631C131.829 4.6027 132.538 3.80907 132.45 3.01546C133.248 2.31002 134.223 2.04548 135.199 2.13366C138.037 2.48638 140.875 1.9573 143.713 2.04548C147.26 2.22184 150.896 2.13366 154.444 2.22184C157.902 2.31002 161.45 1.9573 164.997 2.13366C168.19 2.22184 171.294 2.22184 174.486 2.57456C175.994 2.75092 177.59 3.10364 178.832 3.98544C179.098 4.6027 178.743 5.30813 179.453 5.83721Z" fill="#FFC7C3"/>
<path d="M45.3609 2.75086C43.7645 1.86906 41.9908 1.33998 40.1284 1.2518C36.315 1.07544 32.5015 0.899081 28.6881 0.987261C23.8104 1.07544 18.9327 0.98726 14.1438 1.07544C10.2416 1.16362 6.33946 1.07544 2.43732 1.16362C1.63915 1.16362 0.663619 1.16362 0.220194 2.13359C-0.223231 3.10357 0.0428236 3.89719 0.663619 4.69081C1.10704 5.21989 1.55047 5.74897 1.99389 6.36622C4.03365 9.62888 6.16209 12.8915 8.29053 16.066C11.9266 21.445 15.5627 26.9121 19.1101 32.3793C20.7064 34.8483 23.8991 35.201 24.9633 32.9965C25.8502 31.2329 27.1804 29.9102 28.5994 28.5875C30.4618 26.7357 31.7921 24.4431 33.1223 22.3268C34.4526 20.1223 35.8716 18.006 37.5566 15.9778C40.1285 12.8033 42.6116 9.62888 45.8043 7.07167C45.9817 6.10169 45.5382 5.13171 45.3609 4.24991C46.4251 4.51445 47.3119 4.07355 47.9327 3.27993C47.0459 3.27993 46.159 3.0154 45.3609 2.75086Z" fill="#FEEA80"/>
<path d="M49.2629 2.92721C49.6177 3.27993 49.8838 3.19175 50.0611 2.83903C49.7064 2.48631 49.4403 2.48631 49.2629 2.92721Z" fill="#FEEA80"/>
<path d="M132.627 3.0154C131.917 2.39814 131.208 1.95725 130.232 1.86907C125.798 1.42817 121.275 0.89909 116.841 0.722731C113.737 0.546371 110.633 0.193656 107.618 0.458195C106.908 0.370016 106.199 0.370014 105.489 0.546374C105.223 0.546374 104.869 0.546374 104.603 0.546374C103.804 1.42817 102.74 1.42817 101.765 1.25181C102.74 1.42817 103.716 1.42817 104.603 0.546374C104.425 0.193655 104.159 0.0172967 103.804 0.0172967C99.9022 -0.0708831 96.0888 0.193656 92.1866 0.458195C91.0337 0.546375 90.0582 1.07545 89.26 1.95725C89.1713 2.57451 87.9297 2.30997 88.1958 3.27994C88.1958 4.51446 89.0826 5.48444 88.9939 6.71896C89.9695 7.68893 90.1469 9.01163 90.5903 10.2461C91.5658 12.8915 92.8074 15.3606 94.049 17.8296C94.5811 18.7996 94.3151 19.9459 95.0246 20.8277C96.1775 22.1504 96.6209 23.914 97.6851 25.3249C98.6606 26.6476 98.9267 28.4112 100.08 29.4693C101.942 31.2329 102.385 33.8783 104.07 35.7301C105.135 37.0528 106.021 38.64 106.997 40.0509C107.352 41.0209 108.061 41.4618 109.037 41.7263C109.835 42.6081 110.544 42.6081 111.254 41.55C111.963 40.6682 112.407 39.6982 113.028 38.7282C113.294 38.3755 113.648 38.0228 113.914 37.5819C115.954 33.8783 117.994 30.0866 120.034 26.383C122.251 22.3268 124.557 18.3587 126.596 14.2142C127.661 12.0979 129.08 10.158 129.878 7.86529C130.587 5.92533 130.676 6.01352 132.804 5.39626C132.006 4.60264 132.716 3.80902 132.627 3.0154Z" fill="#FFBC46"/>
<path d="M88.8166 1.60454C89.1713 0.722742 88.8166 0.370025 87.9297 0.634564C88.0184 1.16364 88.3732 1.42818 88.8166 1.60454Z" fill="#FFBC46"/>
<path d="M223.795 2.83903C223.706 2.75085 223.795 2.57449 223.706 2.39814C222.908 1.33998 221.755 1.60452 220.691 1.86906C219.981 1.51634 219.272 1.95724 218.563 2.04541C216.434 1.78088 214.306 2.04541 212.177 2.13359C211.556 1.95723 211.024 2.22178 210.492 2.39814C210.226 2.1336 209.871 2.1336 209.605 2.39814C208.718 2.30996 207.92 2.39813 207.034 2.57449C206.59 2.39813 206.147 2.39813 205.792 2.48631C205.082 2.30995 204.462 2.30995 203.752 2.48631C203.309 2.48631 202.777 2.48631 202.333 2.48631C199.495 2.48631 196.657 2.30995 193.819 2.92721C193.553 2.92721 193.287 2.92721 193.021 2.92721C190.272 3.01539 187.523 3.01539 184.862 3.89719C184.596 3.98537 184.33 3.98537 183.975 4.07355C183.621 3.72083 183.355 3.72083 183.177 4.16173C182.911 4.16173 182.645 4.24991 182.29 4.24991C181.936 5.48443 181.049 5.5726 180.162 5.5726C181.049 5.5726 181.936 5.39625 182.29 4.24991C181.137 4.07355 179.896 4.60263 178.832 3.80901C178.92 4.42627 178.566 5.1317 179.275 5.66078C179.186 6.63076 179.452 7.60074 179.719 8.57072C180.073 9.62887 181.137 10.0698 181.67 10.9516C182.556 12.2743 183.177 13.7733 184.064 15.096C186.459 18.7114 187.878 22.7677 189.829 26.5594C190.804 28.5875 191.691 30.6157 193.11 32.3793C195.859 35.7301 198.431 39.1691 200.648 42.8726C201.269 43.9308 202.511 44.1072 203.575 43.3135C204.196 42.8726 204.373 42.2554 204.639 41.5499C205.26 39.9627 205.881 38.1991 206.856 36.8764C208.009 35.4655 208.896 33.8783 209.871 32.2911C211.29 29.9102 212.532 27.353 213.862 24.9722C215.015 22.944 215.991 20.7395 217.41 18.7114C218.917 16.5069 219.981 14.0379 221.312 11.7452C222.021 10.5107 222.997 9.45252 223.529 8.12982C223.529 7.95346 223.529 7.86528 223.529 7.68892C223.618 6.54258 222.819 5.48442 223.085 4.33809C223.085 4.07355 222.997 3.80901 222.997 3.45629C223.884 3.72083 224.682 3.80901 223.795 2.83903ZM220.957 2.22178C221.134 2.39814 221.312 2.66267 221.489 2.83903C221.312 2.57449 221.134 2.39814 220.957 2.22178Z" fill="#FFC799"/>
<path d="M268.936 4.16177C268.581 3.54451 267.96 3.19179 267.162 3.36815C266.896 3.36815 266.63 3.36815 266.364 3.36815C266.098 3.36815 265.743 3.36815 265.477 3.27997C265.122 3.10361 264.679 3.01544 264.236 3.10362C263.526 2.66272 262.817 2.83907 262.107 2.83907C261.575 2.66271 260.954 2.66272 260.422 2.66272C259.358 2.31 258.205 1.95728 257.052 2.31C256.786 2.31 256.431 2.31 256.165 2.31C256.165 2.39818 256.165 2.48635 256.165 2.48635C256.165 2.39817 256.165 2.31 256.165 2.31C255.367 1.69274 254.48 1.95728 253.593 1.95728C252.618 1.78092 251.642 1.78092 250.667 1.8691C248.982 1.16366 247.297 1.51638 245.523 1.60456C245.257 1.4282 244.991 1.4282 244.725 1.51638C243.572 1.4282 242.419 1.34002 241.266 1.69273C241 1.60455 240.645 1.51638 240.379 1.60456C239.138 0.899118 237.098 0.899119 235.413 1.51638C235.147 1.51638 234.792 1.51638 234.526 1.51638C232.22 0.987299 229.914 1.51638 227.697 1.51638C226.456 1.51638 225.214 2.31 223.884 2.22182C223.884 2.39818 223.884 2.57454 223.973 2.66272C224.859 3.63269 224.15 3.54451 223.44 3.54451C223.44 3.80905 223.529 4.07359 223.529 4.42631C223.352 5.57265 224.061 6.6308 223.973 7.77714C223.973 7.9535 223.973 8.04168 223.973 8.21804C224.593 9.09984 225.303 9.89346 225.392 11.128C225.48 11.7452 225.746 12.3625 226.456 12.5388C226.456 12.7152 226.544 12.8034 226.633 12.8916C226.722 13.597 226.81 14.2143 226.988 14.9197C227.431 16.3306 227.875 17.8296 229.116 18.7996C229.028 19.3287 229.294 19.7696 229.648 20.1223C229.56 20.8277 229.294 21.5332 230.269 21.8859C230.269 22.415 230.535 22.7677 230.801 23.0322C230.979 23.6495 231.156 24.3549 231.333 24.9722C231.511 25.5894 231.866 25.854 232.486 25.9422C232.752 26.2067 232.93 26.4712 233.196 26.824C232.93 27.4412 233.284 27.7939 233.817 28.0585C233.994 28.323 234.26 28.6757 234.437 28.9403C234.526 30.0866 234.792 31.233 235.945 31.8502C237.009 32.732 237.275 34.1429 237.985 35.2892C237.807 36.9646 239.404 37.4055 240.202 38.2873C240.291 38.5519 240.379 38.8164 240.379 39.081C240.202 39.61 240.557 39.8746 241 39.9627C241.266 40.4036 241.443 40.7564 241.71 41.1973C241.443 42.0791 242.153 42.2554 242.774 42.52C242.862 42.6081 242.862 42.7845 242.951 42.8727C243.306 43.7545 244.104 44.1954 244.902 44.7245C245.612 45.1654 246.321 45.0772 246.853 44.4599C247.917 43.2254 248.982 41.9909 249.425 40.3155C249.602 40.0509 249.691 39.7864 249.869 39.61C251.199 37.7583 252.44 35.9065 253.15 33.702C253.505 33.6138 253.771 33.3493 253.948 32.9965C254.391 31.5857 255.367 30.4393 256.076 29.1166C258.56 24.7077 260.865 20.2105 263.26 15.8015C263.437 15.3606 263.615 15.0079 263.792 14.567C264.502 14.0379 264.768 13.2443 264.945 12.3625C265.211 12.0098 265.566 11.7452 265.566 11.3043C266.364 10.7753 266.453 9.80527 266.896 9.01166C267.428 8.12986 267.694 7.0717 269.113 7.24806C269.557 7.33624 269.911 6.98352 270 6.45444C269.468 5.749 269.291 4.95539 268.936 4.16177Z" fill="#FFBC46"/>
</svg>
