<svg width="33" height="44" viewBox="0 0 33 44" fill="none" xmlns="http://www.w3.org/2000/svg">
<path d="M22.7897 37.9747C24.5687 37.5984 25.9075 35.9611 25.9075 33.9984C25.9075 31.7574 24.1622 29.9407 22.0092 29.9407H18.0606M22.7897 37.9747C22.5375 38.028 22.2765 38.056 22.0092 38.056H21.4285V39.9989C22.0921 39.8694 23.5437 39.8435 24.0414 40.7759C24.5391 41.7084 24.5529 42.4596 24.4976 42.7186H11.2738M22.7897 37.9747L25.2856 38.7038C25.8165 38.9455 27.6238 41.6681 28.4533 42.7186C28.4533 42.7186 30.4036 42.7186 31.556 42.7186C31.7333 40.194 30.2491 40.1942 29.3091 39.302L29.5309 25.0117C29.5309 23.1447 29.5309 23.0658 29.5309 22.6059C29.5309 22.1461 28.683 17.7688 28.4533 17.4763C27.783 12.6664 31.8878 15.3028 31.756 12.2408C32.3383 11.5518 30.3136 8.50026 29.3091 7.3626C29.6829 6.40289 29.0213 2.72099 28.6438 1L25.0886 4.77451C25.0715 4.77427 25.0544 4.77415 25.0373 4.77415C24.4413 4.77415 23.8563 4.85847 23.2966 5.01663C23.1561 3.43701 22.7019 0.485463 22.0092 1.31618C21.3165 2.14689 19.7112 6.72208 18.9951 8.90584C18.7457 9.56592 18.6079 10.2809 18.6079 11.032C18.6079 12.8739 18.2236 15.1923 18.9062 16.988H18.8572C11.8938 16.988 6.24885 22.558 6.24885 29.4289C6.24885 32.9595 8.87982 37.2569 11.2738 39.5213V42.7186M11.2738 42.7186C7.65514 42.6328 2.65829 42.2925 1.30588 33.9984C0.224343 27.3655 1.95294 24.525 7.4187 18.8358C9.92899 16.2229 12.1797 12.3638 8.81812 8.90584" stroke="#3A200B" stroke-width="2" stroke-linecap="round" stroke-linejoin="round"/>
</svg>
