<svg width="154" height="60" viewBox="0 0 154 60" fill="none" xmlns="http://www.w3.org/2000/svg">
<path d="M1.991 19.1658C3.29242 19.3881 4.52714 18.5108 4.75035 17.2058L4.75058 17.2045L4.75284 17.1921C4.7559 17.1754 4.76143 17.1458 4.76964 17.1042C4.78607 17.0209 4.81314 16.8899 4.85246 16.7181C4.93124 16.3738 5.05842 15.8689 5.24646 15.2575C5.62526 14.026 6.23713 12.4081 7.1681 10.812C9.02852 7.62226 11.9597 4.79996 16.7459 4.79996C21.7278 4.79996 25.5796 7.77407 30.2055 11.4761L30.4521 11.6735C32.8711 13.6105 35.5297 15.7393 38.5954 17.2371C41.002 18.4129 43.6594 19.1998 46.6486 19.1998C49.6247 19.1998 52.2719 18.4198 54.67 17.2527C57.7492 15.754 60.4179 13.6172 62.8452 11.6735L63.0918 11.4761C67.7177 7.77407 71.5695 4.79996 76.5514 4.79996C81.5333 4.79996 85.385 7.77407 90.011 11.4761L90.2576 11.6735C92.7078 13.6355 95.404 15.7945 98.5202 17.295C100.895 18.4387 103.514 19.1998 106.454 19.1998C109.381 19.1998 111.99 18.4454 114.356 17.3103C117.486 15.8092 120.192 13.6422 122.651 11.6735L122.897 11.4761C127.523 7.77407 131.375 4.79996 136.357 4.79996C141.18 4.79996 144.349 7.66504 146.44 10.9045C147.481 12.5167 148.199 14.1473 148.656 15.3848C148.884 15.9997 149.043 16.5075 149.144 16.8539C149.194 17.0269 149.23 17.1589 149.252 17.243C149.263 17.2851 149.27 17.3151 149.274 17.3322L149.277 17.344L149.278 17.3465L149.278 17.3476C149.58 18.636 150.864 19.4375 152.15 19.1373C153.436 18.8368 154.237 17.5466 153.937 16.2557L151.607 16.7999C153.937 16.2557 153.937 16.2547 153.937 16.2537L153.936 16.2514L153.935 16.2458L153.931 16.2307L153.92 16.1848C153.911 16.1475 153.898 16.0967 153.882 16.0332C153.849 15.9064 153.801 15.7291 153.737 15.5083C153.608 15.0672 153.414 14.45 153.142 13.7149C152.601 12.2524 151.739 10.2831 150.456 8.29529C147.899 4.33485 143.443 0 136.357 0C129.56 0 124.478 4.0689 120.16 7.52632L119.914 7.72373C115.288 11.4258 111.436 14.3999 106.454 14.3999C101.472 14.3999 97.6205 11.4258 92.9945 7.72373L92.7479 7.52632C88.4301 4.0689 83.3487 0 76.5514 0C69.7541 0 64.6726 4.0689 60.3548 7.52631L60.1082 7.72373C55.4823 11.4258 51.6305 14.3999 46.6486 14.3999C41.6668 14.3999 37.815 11.4258 33.189 7.72373L32.9425 7.52631C28.6246 4.0689 23.5432 0 16.7459 0C9.62314 0 5.37764 4.37763 3.03866 8.38783C1.86993 10.3916 1.12641 12.3738 0.674741 13.8422C0.447556 14.5808 0.290733 15.2009 0.189318 15.6441C0.138545 15.866 0.10147 16.0444 0.0762773 16.1721C0.0636757 16.236 0.0540314 16.2872 0.0471193 16.325L0.038767 16.3714L0.0360715 16.3868L0.0350847 16.3925L0.0346802 16.3949C0.0345025 16.396 0.0343347 16.3969 2.3926 16.7999L0.0343345 16.3969C-0.187464 17.7036 0.688565 18.9432 1.991 19.1658Z" fill="#5BD3DF"/>
<path d="M4.75034 37.6057C4.52713 38.9106 3.29242 39.7879 1.991 39.5656C0.688565 39.3431 -0.187464 38.1034 0.0343345 36.7968L2.3926 37.1997C0.0343347 36.7968 0.0345025 36.7958 0.0346802 36.7947L0.0350847 36.7924L0.0360715 36.7866L0.038767 36.7712L0.0471193 36.7248C0.0540314 36.687 0.0636757 36.6358 0.0762773 36.5719C0.10147 36.4442 0.138545 36.2658 0.189318 36.044C0.290733 35.6007 0.447556 34.9806 0.674741 34.242C1.12641 32.7736 1.86993 30.7915 3.03866 28.7876C5.37764 24.7774 9.62314 20.3998 16.7459 20.3998C23.5432 20.3998 28.6246 24.4687 32.9425 27.9261L33.189 28.1235C37.815 31.8256 41.6668 34.7997 46.6486 34.7997C51.6305 34.7997 55.4823 31.8256 60.1082 28.1235L60.3548 27.9261C64.6726 24.4687 69.7541 20.3998 76.5514 20.3998C83.3487 20.3998 88.4301 24.4687 92.7479 27.9261L92.9945 28.1235C97.6205 31.8256 101.472 34.7997 106.454 34.7997C111.436 34.7997 115.288 31.8256 119.914 28.1235L120.16 27.9261C124.478 24.4687 129.56 20.3998 136.357 20.3998C143.443 20.3998 147.899 24.7347 150.456 28.6951C151.739 30.6829 152.601 32.6522 153.142 34.1147C153.414 34.8499 153.608 35.4671 153.737 35.9081C153.801 36.1289 153.849 36.3063 153.882 36.4331C153.898 36.4965 153.911 36.5473 153.92 36.5847L153.931 36.6305L153.935 36.6457L153.936 36.6513L153.937 36.6536C153.937 36.6546 153.937 36.6555 151.607 37.1997L153.937 36.6555C154.237 37.9465 153.436 39.2366 152.15 39.5371C150.864 39.8373 149.58 39.0366 149.278 37.7483L149.278 37.7464L149.277 37.7438L149.274 37.7321C149.27 37.7149 149.263 37.6849 149.252 37.6429C149.23 37.5587 149.194 37.4267 149.144 37.2538C149.043 36.9073 148.884 36.3995 148.656 35.7846C148.199 34.5472 147.481 32.9165 146.44 31.3044C144.349 28.0649 141.18 25.1998 136.357 25.1998C131.375 25.1998 127.523 28.1739 122.897 31.8759L122.651 32.0733C120.192 34.042 117.486 36.209 114.356 37.7101C111.99 38.8452 109.381 39.5996 106.454 39.5996C103.514 39.5996 100.895 38.8385 98.5202 37.6948C95.404 36.1943 92.7078 34.0354 90.2576 32.0733L90.011 31.8759C85.385 28.1739 81.5333 25.1998 76.5514 25.1998C71.5695 25.1998 67.7177 28.1739 63.0918 31.8759L62.8452 32.0733C60.4179 34.017 57.7492 36.1539 54.67 37.6525C52.2719 38.8196 49.6247 39.5996 46.6486 39.5996C43.6594 39.5996 41.002 38.8127 38.5954 37.637C35.5297 36.1391 32.8711 34.0103 30.4521 32.0733L30.2055 31.8759C25.5796 28.1739 21.7278 25.1998 16.7459 25.1998C11.9597 25.1998 9.02852 28.0221 7.1681 31.2118C6.23713 32.808 5.62526 34.4258 5.24646 35.6573C5.05842 36.2687 4.93124 36.7736 4.85246 37.1179C4.81314 37.2898 4.78607 37.4207 4.76964 37.504C4.76143 37.5456 4.7559 37.5752 4.75284 37.5919L4.75058 37.6043L4.75034 37.6057Z" fill="#5BD3DF"/>
<path d="M4.75047 58.0047C4.52761 59.3101 3.29267 60.1878 1.991 59.9654C0.688565 59.7429 -0.187464 58.5032 0.0343345 57.1966L2.3926 57.5995C0.0343347 57.1966 0.0345025 57.1956 0.0346802 57.1946L0.0350847 57.1922L0.0360715 57.1865L0.038767 57.171L0.0471193 57.1246C0.0540314 57.0869 0.0636757 57.0356 0.0762773 56.9717C0.10147 56.8441 0.138545 56.6657 0.189318 56.4438C0.290733 56.0006 0.447556 55.3805 0.674741 54.6418C1.12641 53.1734 1.86993 51.1913 3.03866 49.1875C5.37764 45.1773 9.62314 40.7996 16.7459 40.7996C23.5432 40.7996 28.6246 44.8685 32.9425 48.3259L33.189 48.5234C37.815 52.2254 41.6668 55.1995 46.6486 55.1995C51.6305 55.1995 55.4823 52.2254 60.1082 48.5234L60.3548 48.3259C64.6726 44.8685 69.7541 40.7996 76.5514 40.7996C83.3487 40.7996 88.4301 44.8685 92.7479 48.326L92.9945 48.5234C97.6205 52.2254 101.472 55.1995 106.454 55.1995C111.436 55.1995 115.288 52.2254 119.914 48.5234L120.16 48.326C124.478 44.8685 129.56 40.7996 136.357 40.7996C143.443 40.7996 147.899 45.1345 150.456 49.0949C151.739 51.0827 152.601 53.0521 153.142 54.5146C153.414 55.2497 153.608 55.8669 153.737 56.3079C153.801 56.5287 153.849 56.7061 153.882 56.8329C153.898 56.8963 153.911 56.9471 153.92 56.9845L153.931 57.0303L153.935 57.0455L153.936 57.0511L153.937 57.0534C153.937 57.0544 153.937 57.0553 151.607 57.5995L153.937 57.0553C154.237 58.3463 153.436 59.6364 152.15 59.937C150.864 60.2371 149.58 59.4364 149.278 58.1481L149.278 58.1462L149.277 58.1436L149.274 58.1319C149.273 58.1241 149.27 58.1137 149.267 58.1008C149.263 58.0851 149.258 58.0657 149.252 58.0427C149.23 57.9585 149.194 57.8265 149.144 57.6536C149.043 57.3071 148.884 56.7993 148.656 56.1845C148.199 54.947 147.481 53.3163 146.44 51.7042C144.349 48.4647 141.18 45.5996 136.357 45.5996C131.375 45.5996 127.523 48.5737 122.897 52.2757L122.651 52.4731C120.192 54.4418 117.486 56.6088 114.356 58.1099C111.99 59.2451 109.381 59.9995 106.454 59.9995C103.514 59.9995 100.895 59.2383 98.5202 58.0946C95.404 56.5941 92.7078 54.4352 90.2576 52.4731L90.011 52.2757C85.385 48.5737 81.5333 45.5996 76.5514 45.5996C71.5695 45.5996 67.7177 48.5737 63.0918 52.2757L62.8452 52.4732C60.4179 54.4168 57.7492 56.5537 54.67 58.0523C52.2719 59.2195 49.6247 59.9995 46.6486 59.9995C43.6594 59.9995 41.002 59.2125 38.5954 58.0368C35.5297 56.539 32.8711 54.4101 30.4521 52.4732L30.2055 52.2757C25.5796 48.5737 21.7278 45.5996 16.7459 45.5996C11.9597 45.5996 9.02852 48.4219 7.1681 51.6116C6.23713 53.2078 5.62526 54.8256 5.24646 56.0572C5.05842 56.6685 4.93124 57.1734 4.85246 57.5177C4.81314 57.6896 4.78607 57.8206 4.76964 57.9038C4.76143 57.9454 4.7559 57.975 4.75284 57.9917L4.75047 58.0047Z" fill="#5BD3DF"/>
</svg>
