<svg width="24" height="25" viewBox="0 0 24 25" fill="none" xmlns="http://www.w3.org/2000/svg">
<path fill-rule="evenodd" clip-rule="evenodd" d="M12 0.5C18.6274 0.5 24 5.09661 24 10.7668C24 12.7474 23.344 14.5966 22.2085 16.1649C22.1523 16.2542 22.0789 16.3528 21.9863 16.4618L21.9793 16.4699C21.5914 16.9658 21.1546 17.4313 20.6743 17.861C17.3558 21.1382 11.8937 25.04 11.1728 24.438C10.5461 23.9148 12.205 21.3555 10.2911 20.9295C10.1576 20.9132 10.0244 20.8956 9.8924 20.8756L9.88989 20.8754V20.8752C4.26872 20.022 4.18602e-09 15.821 4.18602e-09 10.7668C-0.000173165 5.09661 5.3725 0.5 12 0.5Z" fill="#CEC2B2"/>
<path fill-rule="evenodd" clip-rule="evenodd" d="M5.03794 14.0411H7.45816C7.80242 14.0411 8.084 13.7402 8.084 13.3723V13.3166C8.084 12.9487 7.80242 12.6479 7.45816 12.6479H5.71599V8.41281C5.71599 8.04499 5.43442 7.74414 5.09015 7.74414H5.03794C4.69368 7.74414 4.41211 8.04499 4.41211 8.41281V13.3723C4.41211 13.7402 4.69368 14.0411 5.03794 14.0411ZM20.0349 10.9324V10.8767C20.0349 10.5088 19.7532 10.208 19.4089 10.208H17.6669V9.1492H19.4089C19.7532 9.1492 20.0349 8.84836 20.0349 8.48053V8.42475C20.0349 8.05692 19.7532 7.75608 19.4089 7.75608H16.9887C16.6445 7.75608 16.3629 8.05692 16.3629 8.42475V13.3842C16.3629 13.752 16.6445 14.0529 16.9887 14.0529H19.4089C19.7532 14.0529 20.0349 13.752 20.0349 13.3842V13.3284C20.0349 12.9606 19.7532 12.6597 19.4089 12.6597H17.6669V11.6009H19.4089C19.7532 11.6011 20.0349 11.3002 20.0349 10.9324ZM15.3805 13.8417L15.3807 13.8415C15.4965 13.7167 15.5615 13.5481 15.5616 13.3724V8.413C15.5616 8.04517 15.2801 7.74433 14.9357 7.74433H14.8835C14.5392 7.74433 14.2577 8.04517 14.2577 8.413V11.3242L11.9955 8.08246C11.8875 7.88087 11.684 7.74433 11.4521 7.74433H11.3999C11.0557 7.74433 10.774 8.04517 10.774 8.413V13.3724C10.774 13.7403 11.0556 14.0412 11.3999 14.0412H11.4521C11.7964 14.0412 12.078 13.7403 12.078 13.3724V10.4067L14.3564 13.7317C14.3704 13.755 14.3857 13.7774 14.4023 13.7986L14.4023 13.7988C14.4649 13.89 14.5506 13.9526 14.646 13.9908C14.7193 14.0232 14.7995 14.0411 14.8834 14.0411H14.9356C15.0376 14.0412 15.138 14.0143 15.228 13.963C15.2906 13.9312 15.3433 13.8901 15.3805 13.8417ZM9.21497 14.0411H9.26718C9.61144 14.0411 9.89301 13.7402 9.89301 13.3723V8.41291C9.89301 8.04508 9.61144 7.74423 9.26718 7.74423H9.21497C8.8707 7.74423 8.58904 8.04508 8.58904 8.41291V13.3723C8.58904 13.7402 8.8707 14.0411 9.21497 14.0411Z" fill="#FAFAFA"/>
</svg>
